<svg id="visual" viewBox="0 0 960 540" width="960" height="540" xmlns="http://www.w3.org/2000/svg" xmlns:xlink="http://www.w3.org/1999/xlink" version="1.1"><g stroke-width="1" stroke-linejoin="bevel"><path d="M474 278L488 304L526 272Z" fill="#f1f1f1" stroke="#f1f1f1"></path><path d="M488 304L532 303L526 272Z" fill="#f3f3f3" stroke="#f3f3f3"></path><path d="M472 216L444 271L474 278Z" fill="#ebebeb" stroke="#ebebeb"></path><path d="M474 278L419 313L488 304Z" fill="#f4f4f4" stroke="#f4f4f4"></path><path d="M571 217L524 216L526 272Z" fill="#ececec" stroke="#ececec"></path><path d="M526 272L472 216L474 278Z" fill="#f1f1f1" stroke="#f1f1f1"></path><path d="M532 303L570 281L526 272Z" fill="#ebebeb" stroke="#ebebeb"></path><path d="M524 216L472 216L526 272Z" fill="#eeeeee" stroke="#eeeeee"></path><path d="M419 313L478 355L488 304Z" fill="#f5f5f5" stroke="#f5f5f5"></path><path d="M488 304L522 358L532 303Z" fill="#ececec" stroke="#ececec"></path><path d="M532 303L585 306L570 281Z" fill="#f3f3f3" stroke="#f3f3f3"></path><path d="M478 355L522 358L488 304Z" fill="#ececec" stroke="#ececec"></path><path d="M383 268L419 313L444 271Z" fill="#eaeaea" stroke="#eaeaea"></path><path d="M444 271L419 313L474 278Z" fill="#eeeeee" stroke="#eeeeee"></path><path d="M570 355L585 306L532 303Z" fill="#f1f1f1" stroke="#f1f1f1"></path><path d="M625 268L571 217L570 281Z" fill="#ececec" stroke="#ececec"></path><path d="M570 281L571 217L526 272Z" fill="#f1f1f1" stroke="#f1f1f1"></path><path d="M540 172L470 187L524 216Z" fill="#eaeaea" stroke="#eaeaea"></path><path d="M524 216L470 187L472 216Z" fill="#f1f1f1" stroke="#f1f1f1"></path><path d="M472 216L419 219L444 271Z" fill="#efefef" stroke="#efefef"></path><path d="M522 358L570 355L532 303Z" fill="#eeeeee" stroke="#eeeeee"></path><path d="M438 174L419 219L472 216Z" fill="#f0f0f0" stroke="#f0f0f0"></path><path d="M419 313L425 352L478 355Z" fill="#eeeeee" stroke="#eeeeee"></path><path d="M477 409L538 400L522 358Z" fill="#f1f1f1" stroke="#f1f1f1"></path><path d="M631 349L613 304L585 306Z" fill="#f5f5f5" stroke="#f5f5f5"></path><path d="M585 306L613 304L570 281Z" fill="#f0f0f0" stroke="#f0f0f0"></path><path d="M571 217L540 172L524 216Z" fill="#ebebeb" stroke="#ebebeb"></path><path d="M419 219L383 268L444 271Z" fill="#f1f1f1" stroke="#f1f1f1"></path><path d="M419 313L375 315L425 352Z" fill="#f0f0f0" stroke="#f0f0f0"></path><path d="M477 142L438 174L470 187Z" fill="#f1f1f1" stroke="#f1f1f1"></path><path d="M470 187L438 174L472 216Z" fill="#ebebeb" stroke="#ebebeb"></path><path d="M419 219L382 236L383 268Z" fill="#ececec" stroke="#ececec"></path><path d="M613 304L625 268L570 281Z" fill="#f5f5f5" stroke="#f5f5f5"></path><path d="M571 217L580 181L540 172Z" fill="#eaeaea" stroke="#eaeaea"></path><path d="M477 409L522 358L478 355Z" fill="#f1f1f1" stroke="#f1f1f1"></path><path d="M522 358L538 400L570 355Z" fill="#ececec" stroke="#ececec"></path><path d="M570 355L631 349L585 306Z" fill="#ebebeb" stroke="#ebebeb"></path><path d="M376 174L382 236L419 219Z" fill="#ebebeb" stroke="#ebebeb"></path><path d="M619 182L580 181L571 217Z" fill="#ebebeb" stroke="#ebebeb"></path><path d="M347 318L375 315L383 268Z" fill="#eaeaea" stroke="#eaeaea"></path><path d="M383 268L375 315L419 313Z" fill="#ebebeb" stroke="#ebebeb"></path><path d="M419 398L478 355L425 352Z" fill="#ededed" stroke="#ededed"></path><path d="M419 398L477 409L478 355Z" fill="#ebebeb" stroke="#ebebeb"></path><path d="M579 141L526 147L540 172Z" fill="#eeeeee" stroke="#eeeeee"></path><path d="M540 172L526 147L470 187Z" fill="#eaeaea" stroke="#eaeaea"></path><path d="M625 268L633 236L571 217Z" fill="#efefef" stroke="#efefef"></path><path d="M526 147L477 142L470 187Z" fill="#ececec" stroke="#ececec"></path><path d="M386 395L419 398L425 352Z" fill="#f1f1f1" stroke="#f1f1f1"></path><path d="M622 409L631 349L570 355Z" fill="#f1f1f1" stroke="#f1f1f1"></path><path d="M676 310L674 265L625 268Z" fill="#ebebeb" stroke="#ebebeb"></path><path d="M674 265L659 224L633 236Z" fill="#ebebeb" stroke="#ebebeb"></path><path d="M518 456L565 415L538 400Z" fill="#f5f5f5" stroke="#f5f5f5"></path><path d="M538 400L565 415L570 355Z" fill="#ededed" stroke="#ededed"></path><path d="M347 352L371 359L375 315Z" fill="#eeeeee" stroke="#eeeeee"></path><path d="M375 315L371 359L425 352Z" fill="#eeeeee" stroke="#eeeeee"></path><path d="M633 236L619 182L571 217Z" fill="#f3f3f3" stroke="#f3f3f3"></path><path d="M580 181L579 141L540 172Z" fill="#ebebeb" stroke="#ebebeb"></path><path d="M328 267L347 318L383 268Z" fill="#ebebeb" stroke="#ebebeb"></path><path d="M619 182L579 141L580 181Z" fill="#ebebeb" stroke="#ebebeb"></path><path d="M526 84L468 87L477 142Z" fill="#f4f4f4" stroke="#f4f4f4"></path><path d="M477 142L424 140L438 174Z" fill="#f4f4f4" stroke="#f4f4f4"></path><path d="M438 174L376 174L419 219Z" fill="#efefef" stroke="#efefef"></path><path d="M468 87L424 140L477 142Z" fill="#f5f5f5" stroke="#f5f5f5"></path><path d="M371 359L386 395L425 352Z" fill="#ebebeb" stroke="#ebebeb"></path><path d="M419 398L438 437L477 409Z" fill="#f4f4f4" stroke="#f4f4f4"></path><path d="M333 406L386 395L371 359Z" fill="#f4f4f4" stroke="#f4f4f4"></path><path d="M424 140L376 174L438 174Z" fill="#ebebeb" stroke="#ebebeb"></path><path d="M382 236L344 225L383 268Z" fill="#efefef" stroke="#efefef"></path><path d="M376 174L344 225L382 236Z" fill="#ebebeb" stroke="#ebebeb"></path><path d="M674 265L633 236L625 268Z" fill="#ececec" stroke="#ececec"></path><path d="M633 236L659 224L619 182Z" fill="#f3f3f3" stroke="#f3f3f3"></path><path d="M379 454L438 437L419 398Z" fill="#eaeaea" stroke="#eaeaea"></path><path d="M477 409L518 456L538 400Z" fill="#ececec" stroke="#ececec"></path><path d="M291 308L347 352L347 318Z" fill="#f0f0f0" stroke="#f0f0f0"></path><path d="M347 318L347 352L375 315Z" fill="#eaeaea" stroke="#eaeaea"></path><path d="M344 225L328 267L383 268Z" fill="#f1f1f1" stroke="#f1f1f1"></path><path d="M676 310L625 268L613 304Z" fill="#f3f3f3" stroke="#f3f3f3"></path><path d="M492 457L518 456L477 409Z" fill="#f1f1f1" stroke="#f1f1f1"></path><path d="M438 437L492 457L477 409Z" fill="#f1f1f1" stroke="#f1f1f1"></path><path d="M585 440L622 409L565 415Z" fill="#ececec" stroke="#ececec"></path><path d="M565 415L622 409L570 355Z" fill="#efefef" stroke="#efefef"></path><path d="M631 349L676 310L613 304Z" fill="#f5f5f5" stroke="#f5f5f5"></path><path d="M672 371L676 310L631 349Z" fill="#efefef" stroke="#efefef"></path><path d="M518 456L585 440L565 415Z" fill="#f3f3f3" stroke="#f3f3f3"></path><path d="M424 140L373 143L376 174Z" fill="#efefef" stroke="#efefef"></path><path d="M376 174L336 177L344 225Z" fill="#f1f1f1" stroke="#f1f1f1"></path><path d="M276 232L284 280L328 267Z" fill="#ebebeb" stroke="#ebebeb"></path><path d="M622 409L672 371L631 349Z" fill="#efefef" stroke="#efefef"></path><path d="M672 410L672 371L622 409Z" fill="#f0f0f0" stroke="#f0f0f0"></path><path d="M373 143L336 177L376 174Z" fill="#f5f5f5" stroke="#f5f5f5"></path><path d="M664 168L636 139L619 182Z" fill="#ededed" stroke="#ededed"></path><path d="M619 182L636 139L579 141Z" fill="#eaeaea" stroke="#eaeaea"></path><path d="M526 84L477 142L526 147Z" fill="#ebebeb" stroke="#ebebeb"></path><path d="M664 168L619 182L659 224Z" fill="#efefef" stroke="#efefef"></path><path d="M526 84L526 147L579 141Z" fill="#ebebeb" stroke="#ebebeb"></path><path d="M424 140L389 85L373 143Z" fill="#efefef" stroke="#efefef"></path><path d="M563 77L526 84L579 141Z" fill="#eaeaea" stroke="#eaeaea"></path><path d="M723 177L664 168L659 224Z" fill="#f5f5f5" stroke="#f5f5f5"></path><path d="M619 490L617 449L585 440Z" fill="#ebebeb" stroke="#ebebeb"></path><path d="M585 440L617 449L622 409Z" fill="#efefef" stroke="#efefef"></path><path d="M426 47L433 86L468 87Z" fill="#f4f4f4" stroke="#f4f4f4"></path><path d="M468 87L433 86L424 140Z" fill="#ebebeb" stroke="#ebebeb"></path><path d="M373 143L344 133L336 177Z" fill="#efefef" stroke="#efefef"></path><path d="M435 495L473 488L438 437Z" fill="#ededed" stroke="#ededed"></path><path d="M438 437L473 488L492 457Z" fill="#ececec" stroke="#ececec"></path><path d="M492 457L531 495L518 456Z" fill="#efefef" stroke="#efefef"></path><path d="M518 456L563 485L585 440Z" fill="#ededed" stroke="#ededed"></path><path d="M278 352L333 406L347 352Z" fill="#ececec" stroke="#ececec"></path><path d="M347 352L333 406L371 359Z" fill="#ebebeb" stroke="#ebebeb"></path><path d="M386 395L379 454L419 398Z" fill="#ebebeb" stroke="#ebebeb"></path><path d="M284 280L291 308L328 267Z" fill="#ededed" stroke="#ededed"></path><path d="M328 267L291 308L347 318Z" fill="#ebebeb" stroke="#ebebeb"></path><path d="M333 406L379 454L386 395Z" fill="#eaeaea" stroke="#eaeaea"></path><path d="M622 88L563 77L579 141Z" fill="#ebebeb" stroke="#ebebeb"></path><path d="M526 84L483 48L468 87Z" fill="#f1f1f1" stroke="#f1f1f1"></path><path d="M531 495L563 485L518 456Z" fill="#eaeaea" stroke="#eaeaea"></path><path d="M664 168L663 140L636 139Z" fill="#f1f1f1" stroke="#f1f1f1"></path><path d="M636 139L622 88L579 141Z" fill="#f4f4f4" stroke="#f4f4f4"></path><path d="M725 134L663 140L664 168Z" fill="#f0f0f0" stroke="#f0f0f0"></path><path d="M617 449L672 410L622 409Z" fill="#f3f3f3" stroke="#f3f3f3"></path><path d="M729 347L718 305L676 310Z" fill="#ebebeb" stroke="#ebebeb"></path><path d="M389 85L344 133L373 143Z" fill="#eaeaea" stroke="#eaeaea"></path><path d="M276 232L328 267L344 225Z" fill="#f3f3f3" stroke="#f3f3f3"></path><path d="M291 187L344 225L336 177Z" fill="#eeeeee" stroke="#eeeeee"></path><path d="M473 488L531 495L492 457Z" fill="#f1f1f1" stroke="#f1f1f1"></path><path d="M676 310L718 305L674 265Z" fill="#efefef" stroke="#efefef"></path><path d="M674 265L729 216L659 224Z" fill="#f0f0f0" stroke="#f0f0f0"></path><path d="M729 347L676 310L672 371Z" fill="#f5f5f5" stroke="#f5f5f5"></path><path d="M379 454L435 495L438 437Z" fill="#eaeaea" stroke="#eaeaea"></path><path d="M473 488L515 540L531 495Z" fill="#f4f4f4" stroke="#f4f4f4"></path><path d="M433 86L389 85L424 140Z" fill="#ebebeb" stroke="#ebebeb"></path><path d="M426 47L389 85L433 86Z" fill="#f4f4f4" stroke="#f4f4f4"></path><path d="M718 305L726 274L674 265Z" fill="#eaeaea" stroke="#eaeaea"></path><path d="M671 94L622 88L636 139Z" fill="#f0f0f0" stroke="#f0f0f0"></path><path d="M570 55L521 52L563 77Z" fill="#ededed" stroke="#ededed"></path><path d="M563 77L521 52L526 84Z" fill="#ebebeb" stroke="#ebebeb"></path><path d="M292 125L336 177L344 133Z" fill="#f4f4f4" stroke="#f4f4f4"></path><path d="M292 125L291 187L336 177Z" fill="#eaeaea" stroke="#eaeaea"></path><path d="M291 187L276 232L344 225Z" fill="#ebebeb" stroke="#ebebeb"></path><path d="M521 52L483 48L526 84Z" fill="#efefef" stroke="#efefef"></path><path d="M333 406L337 447L379 454Z" fill="#f1f1f1" stroke="#f1f1f1"></path><path d="M379 454L388 507L435 495Z" fill="#f3f3f3" stroke="#f3f3f3"></path><path d="M281 455L337 447L333 406Z" fill="#f4f4f4" stroke="#f4f4f4"></path><path d="M240 307L278 352L291 308Z" fill="#f5f5f5" stroke="#f5f5f5"></path><path d="M291 308L278 352L347 352Z" fill="#ededed" stroke="#ededed"></path><path d="M240 307L291 308L284 280Z" fill="#eeeeee" stroke="#eeeeee"></path><path d="M622 88L570 55L563 77Z" fill="#eeeeee" stroke="#eeeeee"></path><path d="M521 52L518 0L483 48Z" fill="#ececec" stroke="#ececec"></path><path d="M726 274L729 216L674 265Z" fill="#f5f5f5" stroke="#f5f5f5"></path><path d="M663 140L671 94L636 139Z" fill="#ececec" stroke="#ececec"></path><path d="M721 405L729 347L672 371Z" fill="#f1f1f1" stroke="#f1f1f1"></path><path d="M766 324L765 261L726 274Z" fill="#f0f0f0" stroke="#f0f0f0"></path><path d="M726 274L765 261L729 216Z" fill="#f4f4f4" stroke="#f4f4f4"></path><path d="M563 485L619 490L585 440Z" fill="#ebebeb" stroke="#ebebeb"></path><path d="M617 449L683 457L672 410Z" fill="#eeeeee" stroke="#eeeeee"></path><path d="M672 410L721 405L672 371Z" fill="#f3f3f3" stroke="#f3f3f3"></path><path d="M579 540L619 490L563 485Z" fill="#f3f3f3" stroke="#f3f3f3"></path><path d="M483 48L426 47L468 87Z" fill="#ececec" stroke="#ececec"></path><path d="M729 216L723 177L659 224Z" fill="#f3f3f3" stroke="#f3f3f3"></path><path d="M330 52L335 96L389 85Z" fill="#ebebeb" stroke="#ebebeb"></path><path d="M389 85L335 96L344 133Z" fill="#eeeeee" stroke="#eeeeee"></path><path d="M243 232L252 267L276 232Z" fill="#eeeeee" stroke="#eeeeee"></path><path d="M276 232L252 267L284 280Z" fill="#ececec" stroke="#ececec"></path><path d="M243 232L276 232L291 187Z" fill="#ededed" stroke="#ededed"></path><path d="M233 360L280 401L278 352Z" fill="#f0f0f0" stroke="#f0f0f0"></path><path d="M278 352L280 401L333 406Z" fill="#ececec" stroke="#ececec"></path><path d="M725 134L671 94L663 140Z" fill="#eaeaea" stroke="#eaeaea"></path><path d="M622 88L621 36L570 55Z" fill="#efefef" stroke="#efefef"></path><path d="M295 484L348 482L337 447Z" fill="#f4f4f4" stroke="#f4f4f4"></path><path d="M337 447L348 482L379 454Z" fill="#f4f4f4" stroke="#f4f4f4"></path><path d="M348 482L388 507L379 454Z" fill="#f3f3f3" stroke="#f3f3f3"></path><path d="M481 540L515 540L473 488Z" fill="#eaeaea" stroke="#eaeaea"></path><path d="M531 495L579 540L563 485Z" fill="#ebebeb" stroke="#ebebeb"></path><path d="M683 457L721 405L672 410Z" fill="#f4f4f4" stroke="#f4f4f4"></path><path d="M671 496L683 457L617 449Z" fill="#f3f3f3" stroke="#f3f3f3"></path><path d="M481 540L473 488L441 540Z" fill="#f5f5f5" stroke="#f5f5f5"></path><path d="M335 96L292 125L344 133Z" fill="#f0f0f0" stroke="#f0f0f0"></path><path d="M441 540L473 488L435 495Z" fill="#f0f0f0" stroke="#f0f0f0"></path><path d="M185 304L240 307L183 262Z" fill="#f4f4f4" stroke="#f4f4f4"></path><path d="M252 267L240 307L284 280Z" fill="#ececec" stroke="#ececec"></path><path d="M240 172L243 232L291 187Z" fill="#f1f1f1" stroke="#f1f1f1"></path><path d="M766 324L718 305L729 347Z" fill="#ededed" stroke="#ededed"></path><path d="M766 324L726 274L718 305Z" fill="#eeeeee" stroke="#eeeeee"></path><path d="M729 216L758 177L723 177Z" fill="#ececec" stroke="#ececec"></path><path d="M765 261L759 220L729 216Z" fill="#efefef" stroke="#efefef"></path><path d="M723 177L725 134L664 168Z" fill="#ededed" stroke="#ededed"></path><path d="M388 507L441 540L435 495Z" fill="#ededed" stroke="#ededed"></path><path d="M758 177L725 134L723 177Z" fill="#f1f1f1" stroke="#f1f1f1"></path><path d="M763 371L766 324L729 347Z" fill="#f4f4f4" stroke="#f4f4f4"></path><path d="M426 47L381 38L389 85Z" fill="#ececec" stroke="#ececec"></path><path d="M335 96L278 95L292 125Z" fill="#eeeeee" stroke="#eeeeee"></path><path d="M379 0L381 38L426 47Z" fill="#eaeaea" stroke="#eaeaea"></path><path d="M440 0L426 47L483 48Z" fill="#f4f4f4" stroke="#f4f4f4"></path><path d="M515 540L579 540L531 495Z" fill="#f0f0f0" stroke="#f0f0f0"></path><path d="M619 490L671 496L617 449Z" fill="#eeeeee" stroke="#eeeeee"></path><path d="M676 33L621 36L622 88Z" fill="#f1f1f1" stroke="#f1f1f1"></path><path d="M576 0L518 0L521 52Z" fill="#ebebeb" stroke="#ebebeb"></path><path d="M676 33L622 88L671 94Z" fill="#efefef" stroke="#efefef"></path><path d="M683 457L728 452L721 405Z" fill="#eaeaea" stroke="#eaeaea"></path><path d="M721 405L763 371L729 347Z" fill="#ededed" stroke="#ededed"></path><path d="M629 540L671 496L619 490Z" fill="#f1f1f1" stroke="#f1f1f1"></path><path d="M770 143L758 177L816 187Z" fill="#efefef" stroke="#efefef"></path><path d="M759 220L758 177L729 216Z" fill="#eeeeee" stroke="#eeeeee"></path><path d="M765 413L763 371L721 405Z" fill="#ececec" stroke="#ececec"></path><path d="M185 304L233 360L240 307Z" fill="#ececec" stroke="#ececec"></path><path d="M240 307L233 360L278 352Z" fill="#f5f5f5" stroke="#f5f5f5"></path><path d="M280 401L281 455L333 406Z" fill="#ededed" stroke="#ededed"></path><path d="M228 445L281 455L280 401Z" fill="#efefef" stroke="#efefef"></path><path d="M329 540L383 540L388 507Z" fill="#f4f4f4" stroke="#f4f4f4"></path><path d="M388 507L383 540L441 540Z" fill="#ebebeb" stroke="#ebebeb"></path><path d="M576 0L521 52L570 55Z" fill="#ececec" stroke="#ececec"></path><path d="M518 0L482 0L483 48Z" fill="#f1f1f1" stroke="#f1f1f1"></path><path d="M242 135L240 172L292 125Z" fill="#f1f1f1" stroke="#f1f1f1"></path><path d="M292 125L240 172L291 187Z" fill="#f0f0f0" stroke="#f0f0f0"></path><path d="M183 262L240 307L252 267Z" fill="#f3f3f3" stroke="#f3f3f3"></path><path d="M709 504L728 452L683 457Z" fill="#f0f0f0" stroke="#f0f0f0"></path><path d="M329 540L388 507L348 482Z" fill="#f4f4f4" stroke="#f4f4f4"></path><path d="M330 0L330 52L381 38Z" fill="#eaeaea" stroke="#eaeaea"></path><path d="M381 38L330 52L389 85Z" fill="#f4f4f4" stroke="#f4f4f4"></path><path d="M482 0L440 0L483 48Z" fill="#eaeaea" stroke="#eaeaea"></path><path d="M771 89L719 92L725 134Z" fill="#efefef" stroke="#efefef"></path><path d="M725 134L719 92L671 94Z" fill="#ededed" stroke="#ededed"></path><path d="M281 455L295 484L337 447Z" fill="#ededed" stroke="#ededed"></path><path d="M248 498L295 484L281 455Z" fill="#ededed" stroke="#ededed"></path><path d="M233 360L237 400L280 401Z" fill="#eeeeee" stroke="#eeeeee"></path><path d="M579 540L629 540L619 490Z" fill="#f4f4f4" stroke="#f4f4f4"></path><path d="M671 496L709 504L683 457Z" fill="#ececec" stroke="#ececec"></path><path d="M330 52L278 95L335 96Z" fill="#f4f4f4" stroke="#f4f4f4"></path><path d="M624 0L576 0L621 36Z" fill="#f3f3f3" stroke="#f3f3f3"></path><path d="M621 36L576 0L570 55Z" fill="#f0f0f0" stroke="#f0f0f0"></path><path d="M728 452L765 413L721 405Z" fill="#eeeeee" stroke="#eeeeee"></path><path d="M823 318L824 279L766 324Z" fill="#eaeaea" stroke="#eaeaea"></path><path d="M278 95L242 135L292 125Z" fill="#efefef" stroke="#efefef"></path><path d="M816 187L758 177L759 220Z" fill="#f5f5f5" stroke="#f5f5f5"></path><path d="M758 177L770 143L725 134Z" fill="#eeeeee" stroke="#eeeeee"></path><path d="M816 187L759 220L823 214Z" fill="#f1f1f1" stroke="#f1f1f1"></path><path d="M824 279L765 261L766 324Z" fill="#eeeeee" stroke="#eeeeee"></path><path d="M728 49L676 33L719 92Z" fill="#f4f4f4" stroke="#f4f4f4"></path><path d="M719 92L676 33L671 94Z" fill="#f1f1f1" stroke="#f1f1f1"></path><path d="M681 540L709 504L671 496Z" fill="#efefef" stroke="#efefef"></path><path d="M728 452L777 462L765 413Z" fill="#eeeeee" stroke="#eeeeee"></path><path d="M440 0L379 0L426 47Z" fill="#ededed" stroke="#ededed"></path><path d="M278 43L239 99L278 95Z" fill="#f3f3f3" stroke="#f3f3f3"></path><path d="M669 0L624 0L621 36Z" fill="#f3f3f3" stroke="#f3f3f3"></path><path d="M292 540L329 540L295 484Z" fill="#eaeaea" stroke="#eaeaea"></path><path d="M295 484L329 540L348 482Z" fill="#f0f0f0" stroke="#f0f0f0"></path><path d="M629 540L681 540L671 496Z" fill="#f5f5f5" stroke="#f5f5f5"></path><path d="M183 262L252 267L243 232Z" fill="#f4f4f4" stroke="#f4f4f4"></path><path d="M233 360L189 368L237 400Z" fill="#efefef" stroke="#efefef"></path><path d="M183 262L243 232L181 222Z" fill="#ebebeb" stroke="#ebebeb"></path><path d="M181 222L243 232L240 172Z" fill="#f0f0f0" stroke="#f0f0f0"></path><path d="M278 95L239 99L242 135Z" fill="#ececec" stroke="#ececec"></path><path d="M202 138L197 168L240 172Z" fill="#f1f1f1" stroke="#f1f1f1"></path><path d="M278 43L278 95L330 52Z" fill="#f4f4f4" stroke="#f4f4f4"></path><path d="M193 438L228 445L237 400Z" fill="#f1f1f1" stroke="#f1f1f1"></path><path d="M237 400L228 445L280 401Z" fill="#f1f1f1" stroke="#f1f1f1"></path><path d="M823 318L766 324L824 352Z" fill="#ececec" stroke="#ececec"></path><path d="M185 304L189 368L233 360Z" fill="#f4f4f4" stroke="#f4f4f4"></path><path d="M202 138L240 172L242 135Z" fill="#efefef" stroke="#efefef"></path><path d="M771 89L728 49L719 92Z" fill="#eeeeee" stroke="#eeeeee"></path><path d="M676 33L669 0L621 36Z" fill="#ebebeb" stroke="#ebebeb"></path><path d="M824 352L766 324L763 371Z" fill="#f1f1f1" stroke="#f1f1f1"></path><path d="M197 168L181 222L240 172Z" fill="#f0f0f0" stroke="#f0f0f0"></path><path d="M138 281L146 317L185 304Z" fill="#f4f4f4" stroke="#f4f4f4"></path><path d="M330 0L278 43L330 52Z" fill="#f3f3f3" stroke="#f3f3f3"></path><path d="M709 0L669 0L676 33Z" fill="#efefef" stroke="#efefef"></path><path d="M379 0L330 0L381 38Z" fill="#f0f0f0" stroke="#f0f0f0"></path><path d="M823 214L759 220L765 261Z" fill="#ebebeb" stroke="#ebebeb"></path><path d="M770 143L771 89L725 134Z" fill="#eeeeee" stroke="#eeeeee"></path><path d="M824 279L823 214L765 261Z" fill="#f3f3f3" stroke="#f3f3f3"></path><path d="M773 497L728 452L709 504Z" fill="#f1f1f1" stroke="#f1f1f1"></path><path d="M773 497L777 462L728 452Z" fill="#f1f1f1" stroke="#f1f1f1"></path><path d="M818 412L824 352L763 371Z" fill="#ededed" stroke="#ededed"></path><path d="M239 99L202 138L242 135Z" fill="#f0f0f0" stroke="#f0f0f0"></path><path d="M136 167L149 224L181 222Z" fill="#f5f5f5" stroke="#f5f5f5"></path><path d="M198 101L202 138L239 99Z" fill="#f5f5f5" stroke="#f5f5f5"></path><path d="M818 412L763 371L765 413Z" fill="#ededed" stroke="#ededed"></path><path d="M874 261L858 221L824 279Z" fill="#f1f1f1" stroke="#f1f1f1"></path><path d="M810 99L771 89L770 143Z" fill="#eeeeee" stroke="#eeeeee"></path><path d="M189 368L192 401L237 400Z" fill="#f3f3f3" stroke="#f3f3f3"></path><path d="M248 498L292 540L295 484Z" fill="#f4f4f4" stroke="#f4f4f4"></path><path d="M248 498L281 455L228 445Z" fill="#eaeaea" stroke="#eaeaea"></path><path d="M199 482L248 498L228 445Z" fill="#ededed" stroke="#ededed"></path><path d="M681 540L721 540L709 504Z" fill="#f3f3f3" stroke="#f3f3f3"></path><path d="M777 462L818 412L765 413Z" fill="#f3f3f3" stroke="#f3f3f3"></path><path d="M824 453L818 412L777 462Z" fill="#f3f3f3" stroke="#f3f3f3"></path><path d="M145 395L193 438L192 401Z" fill="#f3f3f3" stroke="#f3f3f3"></path><path d="M192 401L193 438L237 400Z" fill="#eaeaea" stroke="#eaeaea"></path><path d="M145 395L192 401L189 368Z" fill="#f3f3f3" stroke="#f3f3f3"></path><path d="M721 540L773 497L709 504Z" fill="#ececec" stroke="#ececec"></path><path d="M755 0L709 0L728 49Z" fill="#ededed" stroke="#ededed"></path><path d="M728 49L709 0L676 33Z" fill="#ebebeb" stroke="#ebebeb"></path><path d="M820 37L763 48L771 89Z" fill="#eeeeee" stroke="#eeeeee"></path><path d="M771 89L763 48L728 49Z" fill="#ededed" stroke="#ededed"></path><path d="M231 39L198 101L239 99Z" fill="#ededed" stroke="#ededed"></path><path d="M136 167L181 222L197 168Z" fill="#f4f4f4" stroke="#f4f4f4"></path><path d="M231 39L239 99L278 43Z" fill="#f1f1f1" stroke="#f1f1f1"></path><path d="M146 143L197 168L202 138Z" fill="#f1f1f1" stroke="#f1f1f1"></path><path d="M181 222L149 224L183 262Z" fill="#f0f0f0" stroke="#f0f0f0"></path><path d="M185 304L146 317L189 368Z" fill="#f5f5f5" stroke="#f5f5f5"></path><path d="M138 281L185 304L183 262Z" fill="#f3f3f3" stroke="#f3f3f3"></path><path d="M825 126L810 99L770 143Z" fill="#f0f0f0" stroke="#f0f0f0"></path><path d="M825 126L770 143L816 187Z" fill="#eaeaea" stroke="#eaeaea"></path><path d="M330 0L277 0L278 43Z" fill="#f0f0f0" stroke="#f0f0f0"></path><path d="M851 181L816 187L823 214Z" fill="#eeeeee" stroke="#eeeeee"></path><path d="M851 181L825 126L816 187Z" fill="#f4f4f4" stroke="#f4f4f4"></path><path d="M858 221L823 214L824 279Z" fill="#f5f5f5" stroke="#f5f5f5"></path><path d="M146 317L150 366L189 368Z" fill="#ededed" stroke="#ededed"></path><path d="M243 0L231 39L278 43Z" fill="#f5f5f5" stroke="#f5f5f5"></path><path d="M864 325L824 279L823 318Z" fill="#eeeeee" stroke="#eeeeee"></path><path d="M864 325L823 318L824 352Z" fill="#eaeaea" stroke="#eaeaea"></path><path d="M149 224L138 281L183 262Z" fill="#efefef" stroke="#efefef"></path><path d="M101 416L145 395L83 350Z" fill="#efefef" stroke="#efefef"></path><path d="M149 453L199 482L193 438Z" fill="#eaeaea" stroke="#eaeaea"></path><path d="M193 438L199 482L228 445Z" fill="#ececec" stroke="#ececec"></path><path d="M248 498L228 540L292 540Z" fill="#f3f3f3" stroke="#f3f3f3"></path><path d="M858 221L851 181L823 214Z" fill="#ededed" stroke="#ededed"></path><path d="M852 397L824 352L818 412Z" fill="#eeeeee" stroke="#eeeeee"></path><path d="M852 397L858 359L824 352Z" fill="#f0f0f0" stroke="#f0f0f0"></path><path d="M858 359L864 325L824 352Z" fill="#f5f5f5" stroke="#f5f5f5"></path><path d="M819 495L824 453L777 462Z" fill="#eaeaea" stroke="#eaeaea"></path><path d="M824 453L852 397L818 412Z" fill="#ebebeb" stroke="#ebebeb"></path><path d="M904 311L900 277L864 325Z" fill="#ececec" stroke="#ececec"></path><path d="M150 366L145 395L189 368Z" fill="#f4f4f4" stroke="#f4f4f4"></path><path d="M97 317L150 366L146 317Z" fill="#ededed" stroke="#ededed"></path><path d="M864 325L874 261L824 279Z" fill="#f1f1f1" stroke="#f1f1f1"></path><path d="M921 178L875 125L851 181Z" fill="#ececec" stroke="#ececec"></path><path d="M199 482L228 540L248 498Z" fill="#f0f0f0" stroke="#f0f0f0"></path><path d="M197 540L228 540L199 482Z" fill="#ececec" stroke="#ececec"></path><path d="M820 37L755 0L763 48Z" fill="#eaeaea" stroke="#eaeaea"></path><path d="M763 48L755 0L728 49Z" fill="#ebebeb" stroke="#ebebeb"></path><path d="M721 540L778 540L773 497Z" fill="#eaeaea" stroke="#eaeaea"></path><path d="M773 497L819 495L777 462Z" fill="#ececec" stroke="#ececec"></path><path d="M133 80L146 143L198 101Z" fill="#efefef" stroke="#efefef"></path><path d="M198 101L146 143L202 138Z" fill="#f3f3f3" stroke="#f3f3f3"></path><path d="M87 268L97 317L138 281Z" fill="#efefef" stroke="#efefef"></path><path d="M277 0L243 0L278 43Z" fill="#ededed" stroke="#ededed"></path><path d="M231 39L191 45L198 101Z" fill="#f0f0f0" stroke="#f0f0f0"></path><path d="M146 143L136 167L197 168Z" fill="#f3f3f3" stroke="#f3f3f3"></path><path d="M812 540L819 495L773 497Z" fill="#f1f1f1" stroke="#f1f1f1"></path><path d="M824 453L867 456L852 397Z" fill="#eaeaea" stroke="#eaeaea"></path><path d="M204 0L191 45L231 39Z" fill="#f0f0f0" stroke="#f0f0f0"></path><path d="M145 395L149 453L193 438Z" fill="#ebebeb" stroke="#ebebeb"></path><path d="M904 311L864 325L922 355Z" fill="#eaeaea" stroke="#eaeaea"></path><path d="M864 325L900 277L874 261Z" fill="#ececec" stroke="#ececec"></path><path d="M874 261L914 222L858 221Z" fill="#f4f4f4" stroke="#f4f4f4"></path><path d="M863 77L810 99L825 126Z" fill="#eeeeee" stroke="#eeeeee"></path><path d="M864 325L858 359L922 355Z" fill="#f4f4f4" stroke="#f4f4f4"></path><path d="M156 492L197 540L199 482Z" fill="#f4f4f4" stroke="#f4f4f4"></path><path d="M863 77L820 37L810 99Z" fill="#eeeeee" stroke="#eeeeee"></path><path d="M810 99L820 37L771 89Z" fill="#ebebeb" stroke="#ebebeb"></path><path d="M875 125L825 126L851 181Z" fill="#f4f4f4" stroke="#f4f4f4"></path><path d="M149 453L156 492L199 482Z" fill="#ebebeb" stroke="#ebebeb"></path><path d="M900 406L858 359L852 397Z" fill="#efefef" stroke="#efefef"></path><path d="M94 234L138 281L149 224Z" fill="#f4f4f4" stroke="#f4f4f4"></path><path d="M138 281L97 317L146 317Z" fill="#efefef" stroke="#efefef"></path><path d="M145 395L101 416L149 453Z" fill="#eaeaea" stroke="#eaeaea"></path><path d="M149 453L101 487L156 492Z" fill="#f5f5f5" stroke="#f5f5f5"></path><path d="M914 222L851 181L858 221Z" fill="#f3f3f3" stroke="#f3f3f3"></path><path d="M778 540L812 540L773 497Z" fill="#ebebeb" stroke="#ebebeb"></path><path d="M854 482L867 456L824 453Z" fill="#f3f3f3" stroke="#f3f3f3"></path><path d="M854 482L824 453L819 495Z" fill="#ededed" stroke="#ededed"></path><path d="M852 540L854 482L819 495Z" fill="#ebebeb" stroke="#ebebeb"></path><path d="M243 0L204 0L231 39Z" fill="#f0f0f0" stroke="#f0f0f0"></path><path d="M91 123L136 167L146 143Z" fill="#eeeeee" stroke="#eeeeee"></path><path d="M95 177L149 224L136 167Z" fill="#efefef" stroke="#efefef"></path><path d="M95 177L136 167L91 123Z" fill="#f0f0f0" stroke="#f0f0f0"></path><path d="M95 177L94 234L149 224Z" fill="#ebebeb" stroke="#ebebeb"></path><path d="M94 234L87 268L138 281Z" fill="#ededed" stroke="#ededed"></path><path d="M875 125L863 77L825 126Z" fill="#f1f1f1" stroke="#f1f1f1"></path><path d="M900 277L914 222L874 261Z" fill="#f0f0f0" stroke="#f0f0f0"></path><path d="M909 35L864 46L863 77Z" fill="#eaeaea" stroke="#eaeaea"></path><path d="M960 260L914 222L900 277Z" fill="#f3f3f3" stroke="#f3f3f3"></path><path d="M133 80L198 101L191 45Z" fill="#f0f0f0" stroke="#f0f0f0"></path><path d="M94 234L51 258L87 268Z" fill="#eeeeee" stroke="#eeeeee"></path><path d="M904 437L900 406L867 456Z" fill="#f5f5f5" stroke="#f5f5f5"></path><path d="M867 456L900 406L852 397Z" fill="#f3f3f3" stroke="#f3f3f3"></path><path d="M960 304L960 260L900 277Z" fill="#efefef" stroke="#efefef"></path><path d="M147 36L133 80L191 45Z" fill="#eeeeee" stroke="#eeeeee"></path><path d="M83 350L150 366L97 317Z" fill="#f4f4f4" stroke="#f4f4f4"></path><path d="M83 350L145 395L150 366Z" fill="#ececec" stroke="#ececec"></path><path d="M43 312L83 350L97 317Z" fill="#f4f4f4" stroke="#f4f4f4"></path><path d="M863 0L823 0L820 37Z" fill="#ededed" stroke="#ededed"></path><path d="M820 37L823 0L755 0Z" fill="#efefef" stroke="#efefef"></path><path d="M900 406L922 355L858 359Z" fill="#eaeaea" stroke="#eaeaea"></path><path d="M204 0L147 36L191 45Z" fill="#efefef" stroke="#efefef"></path><path d="M107 85L91 123L146 143Z" fill="#f4f4f4" stroke="#f4f4f4"></path><path d="M915 97L863 77L875 125Z" fill="#ebebeb" stroke="#ebebeb"></path><path d="M863 77L864 46L820 37Z" fill="#ededed" stroke="#ededed"></path><path d="M960 237L921 178L914 222Z" fill="#ededed" stroke="#ededed"></path><path d="M914 222L921 178L851 181Z" fill="#ededed" stroke="#ededed"></path><path d="M960 407L960 367L922 355Z" fill="#efefef" stroke="#efefef"></path><path d="M909 502L904 437L867 456Z" fill="#eeeeee" stroke="#eeeeee"></path><path d="M909 502L867 456L854 482Z" fill="#efefef" stroke="#efefef"></path><path d="M812 540L852 540L819 495Z" fill="#ebebeb" stroke="#ebebeb"></path><path d="M107 85L146 143L133 80Z" fill="#ececec" stroke="#ececec"></path><path d="M46 218L51 258L94 234Z" fill="#eeeeee" stroke="#eeeeee"></path><path d="M87 268L43 312L97 317Z" fill="#eaeaea" stroke="#eaeaea"></path><path d="M85 46L107 85L133 80Z" fill="#eeeeee" stroke="#eeeeee"></path><path d="M921 178L920 144L875 125Z" fill="#ebebeb" stroke="#ebebeb"></path><path d="M53 410L91 449L101 416Z" fill="#ededed" stroke="#ededed"></path><path d="M101 416L91 449L149 453Z" fill="#ebebeb" stroke="#ebebeb"></path><path d="M156 492L131 540L197 540Z" fill="#f4f4f4" stroke="#f4f4f4"></path><path d="M91 449L101 487L149 453Z" fill="#f1f1f1" stroke="#f1f1f1"></path><path d="M55 186L94 234L95 177Z" fill="#eeeeee" stroke="#eeeeee"></path><path d="M83 350L53 410L101 416Z" fill="#f5f5f5" stroke="#f5f5f5"></path><path d="M101 487L131 540L156 492Z" fill="#ededed" stroke="#ededed"></path><path d="M920 144L915 97L875 125Z" fill="#f3f3f3" stroke="#f3f3f3"></path><path d="M864 46L863 0L820 37Z" fill="#eeeeee" stroke="#eeeeee"></path><path d="M37 139L55 186L95 177Z" fill="#ececec" stroke="#ececec"></path><path d="M37 139L95 177L91 123Z" fill="#f5f5f5" stroke="#f5f5f5"></path><path d="M147 36L85 46L133 80Z" fill="#eaeaea" stroke="#eaeaea"></path><path d="M107 85L46 99L91 123Z" fill="#f4f4f4" stroke="#f4f4f4"></path><path d="M204 0L141 0L147 36Z" fill="#ededed" stroke="#ededed"></path><path d="M901 0L863 0L864 46Z" fill="#efefef" stroke="#efefef"></path><path d="M0 272L43 312L51 258Z" fill="#f4f4f4" stroke="#f4f4f4"></path><path d="M51 258L43 312L87 268Z" fill="#f5f5f5" stroke="#f5f5f5"></path><path d="M91 449L59 460L101 487Z" fill="#f1f1f1" stroke="#f1f1f1"></path><path d="M55 186L46 218L94 234Z" fill="#f5f5f5" stroke="#f5f5f5"></path><path d="M960 304L904 311L922 355Z" fill="#ededed" stroke="#ededed"></path><path d="M960 304L900 277L904 311Z" fill="#efefef" stroke="#efefef"></path><path d="M921 178L960 167L920 144Z" fill="#ececec" stroke="#ececec"></path><path d="M920 144L960 145L915 97Z" fill="#f0f0f0" stroke="#f0f0f0"></path><path d="M960 367L960 304L922 355Z" fill="#ededed" stroke="#ededed"></path><path d="M960 260L960 237L914 222Z" fill="#f0f0f0" stroke="#f0f0f0"></path><path d="M852 540L909 502L854 482Z" fill="#f1f1f1" stroke="#f1f1f1"></path><path d="M960 407L922 355L900 406Z" fill="#f4f4f4" stroke="#f4f4f4"></path><path d="M43 312L42 359L83 350Z" fill="#f5f5f5" stroke="#f5f5f5"></path><path d="M42 359L53 410L83 350Z" fill="#f4f4f4" stroke="#f4f4f4"></path><path d="M101 487L100 540L131 540Z" fill="#f5f5f5" stroke="#f5f5f5"></path><path d="M960 407L900 406L904 437Z" fill="#eaeaea" stroke="#eaeaea"></path><path d="M960 237L960 167L921 178Z" fill="#eeeeee" stroke="#eeeeee"></path><path d="M915 97L909 35L863 77Z" fill="#f5f5f5" stroke="#f5f5f5"></path><path d="M960 41L909 35L915 97Z" fill="#f4f4f4" stroke="#f4f4f4"></path><path d="M960 437L960 407L904 437Z" fill="#f5f5f5" stroke="#f5f5f5"></path><path d="M35 496L59 460L0 448Z" fill="#efefef" stroke="#efefef"></path><path d="M53 410L59 460L91 449Z" fill="#f1f1f1" stroke="#f1f1f1"></path><path d="M92 0L85 46L147 36Z" fill="#ececec" stroke="#ececec"></path><path d="M0 180L0 231L46 218Z" fill="#f5f5f5" stroke="#f5f5f5"></path><path d="M35 496L100 540L101 487Z" fill="#f0f0f0" stroke="#f0f0f0"></path><path d="M960 167L960 145L920 144Z" fill="#efefef" stroke="#efefef"></path><path d="M46 99L37 139L91 123Z" fill="#efefef" stroke="#efefef"></path><path d="M0 231L0 272L51 258Z" fill="#f3f3f3" stroke="#f3f3f3"></path><path d="M43 312L0 327L42 359Z" fill="#f4f4f4" stroke="#f4f4f4"></path><path d="M909 502L960 437L904 437Z" fill="#ededed" stroke="#ededed"></path><path d="M960 0L901 0L909 35Z" fill="#ececec" stroke="#ececec"></path><path d="M909 35L901 0L864 46Z" fill="#f5f5f5" stroke="#f5f5f5"></path><path d="M85 46L46 99L107 85Z" fill="#eeeeee" stroke="#eeeeee"></path><path d="M141 0L92 0L147 36Z" fill="#f1f1f1" stroke="#f1f1f1"></path><path d="M85 46L59 41L46 99Z" fill="#ececec" stroke="#ececec"></path><path d="M852 540L924 540L909 502Z" fill="#f4f4f4" stroke="#f4f4f4"></path><path d="M909 502L960 499L960 437Z" fill="#f1f1f1" stroke="#f1f1f1"></path><path d="M960 145L960 90L915 97Z" fill="#efefef" stroke="#efefef"></path><path d="M46 218L55 186L0 180Z" fill="#f0f0f0" stroke="#f0f0f0"></path><path d="M0 231L51 258L46 218Z" fill="#eeeeee" stroke="#eeeeee"></path><path d="M42 359L0 371L53 410Z" fill="#ececec" stroke="#ececec"></path><path d="M92 0L59 41L85 46Z" fill="#ececec" stroke="#ececec"></path><path d="M0 180L55 186L37 139Z" fill="#efefef" stroke="#efefef"></path><path d="M0 272L0 327L43 312Z" fill="#f1f1f1" stroke="#f1f1f1"></path><path d="M0 180L37 139L0 139Z" fill="#eaeaea" stroke="#eaeaea"></path><path d="M924 540L960 499L909 502Z" fill="#eeeeee" stroke="#eeeeee"></path><path d="M0 327L0 371L42 359Z" fill="#eeeeee" stroke="#eeeeee"></path><path d="M59 460L35 496L101 487Z" fill="#ececec" stroke="#ececec"></path><path d="M0 139L37 139L0 95Z" fill="#eaeaea" stroke="#eaeaea"></path><path d="M0 448L59 460L53 410Z" fill="#ededed" stroke="#ededed"></path><path d="M0 371L0 409L53 410Z" fill="#eaeaea" stroke="#eaeaea"></path><path d="M960 90L960 41L915 97Z" fill="#eeeeee" stroke="#eeeeee"></path><path d="M0 95L37 139L46 99Z" fill="#efefef" stroke="#efefef"></path><path d="M924 540L960 540L960 499Z" fill="#f3f3f3" stroke="#f3f3f3"></path><path d="M0 540L41 540L35 496Z" fill="#ebebeb" stroke="#ebebeb"></path><path d="M35 496L41 540L100 540Z" fill="#f0f0f0" stroke="#f0f0f0"></path><path d="M0 409L0 448L53 410Z" fill="#efefef" stroke="#efefef"></path><path d="M92 0L48 0L59 41Z" fill="#eaeaea" stroke="#eaeaea"></path><path d="M0 52L0 95L46 99Z" fill="#f5f5f5" stroke="#f5f5f5"></path><path d="M0 52L46 99L59 41Z" fill="#efefef" stroke="#efefef"></path><path d="M960 41L960 0L909 35Z" fill="#eeeeee" stroke="#eeeeee"></path><path d="M0 448L0 487L35 496Z" fill="#f0f0f0" stroke="#f0f0f0"></path><path d="M48 0L0 52L59 41Z" fill="#f0f0f0" stroke="#f0f0f0"></path><path d="M0 487L0 540L35 496Z" fill="#f4f4f4" stroke="#f4f4f4"></path><path d="M48 0L0 0L0 52Z" fill="#f4f4f4" stroke="#f4f4f4"></path></g></svg>