<svg id="visual" viewBox="0 0 900 600" width="900" height="600" xmlns="http://www.w3.org/2000/svg" xmlns:xlink="http://www.w3.org/1999/xlink" version="1.1"><g stroke-width="1" stroke-linejoin="bevel"><path d="M464 309.9L478 334L473 293.1Z" fill="#f6f6f6" stroke="#f6f6f6"></path><path d="M464 309.9L465 349.7L478 334Z" fill="#f1f1f1" stroke="#f1f1f1"></path><path d="M546 280.1L479 268.1L473 293.1Z" fill="#f4f4f4" stroke="#f4f4f4"></path><path d="M419 253.1L416 317.9L464 309.9Z" fill="#fdfdfd" stroke="#fdfdfd"></path><path d="M534 378.9L534 322L478 334Z" fill="#fcfcfc" stroke="#fcfcfc"></path><path d="M478 334L534 322L473 293.1Z" fill="#f9f9f9" stroke="#f9f9f9"></path><path d="M534 322L546 280.1L473 293.1Z" fill="#fdfdfd" stroke="#fdfdfd"></path><path d="M534 378.9L557 326L534 322Z" fill="#f1f1f1" stroke="#f1f1f1"></path><path d="M534 322L557 326L546 280.1Z" fill="#f0f0f0" stroke="#f0f0f0"></path><path d="M419 253.1L464 309.9L473 293.1Z" fill="#fafafa" stroke="#fafafa"></path><path d="M464 309.9L416 317.9L465 349.7Z" fill="#f6f6f6" stroke="#f6f6f6"></path><path d="M465 349.7L534 378.9L478 334Z" fill="#f4f4f4" stroke="#f4f4f4"></path><path d="M416 317.9L409 352.7L465 349.7Z" fill="#f6f6f6" stroke="#f6f6f6"></path><path d="M465 349.7L505 422.6L534 378.9Z" fill="#ffffff" stroke="#ffffff"></path><path d="M387 303.9L400 328L416 317.9Z" fill="#f1f1f1" stroke="#f1f1f1"></path><path d="M416 317.9L400 328L409 352.7Z" fill="#f1f1f1" stroke="#f1f1f1"></path><path d="M534 378.9L547 379.7L557 326Z" fill="#fafafa" stroke="#fafafa"></path><path d="M476 214.3L419 253.1L479 268.1Z" fill="#f3f3f3" stroke="#f3f3f3"></path><path d="M479 268.1L419 253.1L473 293.1Z" fill="#fcfcfc" stroke="#fcfcfc"></path><path d="M387 303.9L395 333L400 328Z" fill="#f0f0f0" stroke="#f0f0f0"></path><path d="M400 328L395 333L409 352.7Z" fill="#fcfcfc" stroke="#fcfcfc"></path><path d="M546 280.1L529 224.3L479 268.1Z" fill="#fafafa" stroke="#fafafa"></path><path d="M529 224.3L476 214.3L479 268.1Z" fill="#f6f6f6" stroke="#f6f6f6"></path><path d="M419 253.1L387 303.9L416 317.9Z" fill="#fcfcfc" stroke="#fcfcfc"></path><path d="M547 379.7L572 369.7L557 326Z" fill="#ffffff" stroke="#ffffff"></path><path d="M616 283L593 237.1L546 280.1Z" fill="#f0f0f0" stroke="#f0f0f0"></path><path d="M593 237.1L532 216.3L529 224.3Z" fill="#fafafa" stroke="#fafafa"></path><path d="M529 224.3L525 193.4L476 214.3Z" fill="#f3f3f3" stroke="#f3f3f3"></path><path d="M593 237.1L529 224.3L546 280.1Z" fill="#f4f4f4" stroke="#f4f4f4"></path><path d="M572 369.7L587 350.9L557 326Z" fill="#f9f9f9" stroke="#f9f9f9"></path><path d="M483 443.4L505 422.6L452 443.6Z" fill="#fcfcfc" stroke="#fcfcfc"></path><path d="M534 378.9L525 423.7L547 379.7Z" fill="#f0f0f0" stroke="#f0f0f0"></path><path d="M547 379.7L563 414.6L572 369.7Z" fill="#f4f4f4" stroke="#f4f4f4"></path><path d="M505 422.6L525 423.7L534 378.9Z" fill="#f4f4f4" stroke="#f4f4f4"></path><path d="M598 185.3L525 193.4L532 216.3Z" fill="#ffffff" stroke="#ffffff"></path><path d="M532 216.3L525 193.4L529 224.3Z" fill="#f3f3f3" stroke="#f3f3f3"></path><path d="M525 423.7L563 414.6L547 379.7Z" fill="#f1f1f1" stroke="#f1f1f1"></path><path d="M630 400.7L645 348.9L587 350.9Z" fill="#f4f4f4" stroke="#f4f4f4"></path><path d="M338 347.9L396 399.7L409 352.7Z" fill="#fcfcfc" stroke="#fcfcfc"></path><path d="M409 352.7L396 399.7L465 349.7Z" fill="#f3f3f3" stroke="#f3f3f3"></path><path d="M388 425.6L396 399.7L327 407.6Z" fill="#f3f3f3" stroke="#f3f3f3"></path><path d="M616 283L546 280.1L557 326Z" fill="#f6f6f6" stroke="#f6f6f6"></path><path d="M620 309L557 326L587 350.9Z" fill="#f3f3f3" stroke="#f3f3f3"></path><path d="M620 309L616 283L557 326Z" fill="#f3f3f3" stroke="#f3f3f3"></path><path d="M452 443.6L505 422.6L465 349.7Z" fill="#f4f4f4" stroke="#f4f4f4"></path><path d="M505 422.6L515 465.4L525 423.7Z" fill="#f4f4f4" stroke="#f4f4f4"></path><path d="M525 423.7L554 439.6L563 414.6Z" fill="#f7f7f7" stroke="#f7f7f7"></path><path d="M645 348.9L620 309L587 350.9Z" fill="#f7f7f7" stroke="#f7f7f7"></path><path d="M396 399.7L452 443.6L465 349.7Z" fill="#f9f9f9" stroke="#f9f9f9"></path><path d="M525 193.4L484 171.4L476 214.3Z" fill="#fcfcfc" stroke="#fcfcfc"></path><path d="M476 214.3L389 209.3L419 253.1Z" fill="#f0f0f0" stroke="#f0f0f0"></path><path d="M444 165.4L389 209.3L476 214.3Z" fill="#fafafa" stroke="#fafafa"></path><path d="M344 254.1L343 257.1L387 303.9Z" fill="#ffffff" stroke="#ffffff"></path><path d="M515 465.4L554 439.6L525 423.7Z" fill="#f7f7f7" stroke="#f7f7f7"></path><path d="M630 400.7L587 350.9L572 369.7Z" fill="#ffffff" stroke="#ffffff"></path><path d="M338 347.9L409 352.7L395 333Z" fill="#f3f3f3" stroke="#f3f3f3"></path><path d="M396 399.7L388 425.6L452 443.6Z" fill="#ffffff" stroke="#ffffff"></path><path d="M532 147.6L472 160.4L484 171.4Z" fill="#f4f4f4" stroke="#f4f4f4"></path><path d="M484 171.4L444 165.4L476 214.3Z" fill="#f3f3f3" stroke="#f3f3f3"></path><path d="M472 160.4L444 165.4L484 171.4Z" fill="#f3f3f3" stroke="#f3f3f3"></path><path d="M323 269L338 347.9L387 303.9Z" fill="#f0f0f0" stroke="#f0f0f0"></path><path d="M387 303.9L338 347.9L395 333Z" fill="#f7f7f7" stroke="#f7f7f7"></path><path d="M344 254.1L387 303.9L419 253.1Z" fill="#ffffff" stroke="#ffffff"></path><path d="M367 214.3L344 254.1L419 253.1Z" fill="#f4f4f4" stroke="#f4f4f4"></path><path d="M325 185.4L367 214.3L346 150.4Z" fill="#f4f4f4" stroke="#f4f4f4"></path><path d="M389 209.3L367 214.3L419 253.1Z" fill="#fafafa" stroke="#fafafa"></path><path d="M523 496.4L515 465.4L504 522.1Z" fill="#ffffff" stroke="#ffffff"></path><path d="M483 443.4L515 465.4L505 422.6Z" fill="#fdfdfd" stroke="#fdfdfd"></path><path d="M515 465.4L483 443.4L504 522.1Z" fill="#f7f7f7" stroke="#f7f7f7"></path><path d="M616 283L624 229.1L593 237.1Z" fill="#fcfcfc" stroke="#fcfcfc"></path><path d="M593 237.1L598 185.3L532 216.3Z" fill="#fafafa" stroke="#fafafa"></path><path d="M525 193.4L532 147.6L484 171.4Z" fill="#fcfcfc" stroke="#fcfcfc"></path><path d="M646 241.3L624 229.1L616 283Z" fill="#fcfcfc" stroke="#fcfcfc"></path><path d="M630 400.7L572 369.7L563 414.6Z" fill="#f7f7f7" stroke="#f7f7f7"></path><path d="M620 309L656 298L616 283Z" fill="#f6f6f6" stroke="#f6f6f6"></path><path d="M610 433.6L563 414.6L554 439.6Z" fill="#fafafa" stroke="#fafafa"></path><path d="M610 433.6L630 400.7L563 414.6Z" fill="#fafafa" stroke="#fafafa"></path><path d="M624 229.1L598 185.3L593 237.1Z" fill="#f3f3f3" stroke="#f3f3f3"></path><path d="M666 309.9L656 298L620 309Z" fill="#f3f3f3" stroke="#f3f3f3"></path><path d="M565 153.4L532 147.6L525 193.4Z" fill="#f0f0f0" stroke="#f0f0f0"></path><path d="M472 160.4L433 132.6L444 165.4Z" fill="#ffffff" stroke="#ffffff"></path><path d="M284 253.3L323 269L344 254.1Z" fill="#fdfdfd" stroke="#fdfdfd"></path><path d="M344 254.1L323 269L343 257.1Z" fill="#f9f9f9" stroke="#f9f9f9"></path><path d="M343 257.1L323 269L387 303.9Z" fill="#f1f1f1" stroke="#f1f1f1"></path><path d="M577 504.4L610 433.6L554 439.6Z" fill="#f7f7f7" stroke="#f7f7f7"></path><path d="M656 298L646 241.3L616 283Z" fill="#f4f4f4" stroke="#f4f4f4"></path><path d="M624 229.1L627 175.4L598 185.3Z" fill="#fdfdfd" stroke="#fdfdfd"></path><path d="M598 185.3L565 153.4L525 193.4Z" fill="#f6f6f6" stroke="#f6f6f6"></path><path d="M645 348.9L666 309.9L620 309Z" fill="#f3f3f3" stroke="#f3f3f3"></path><path d="M656 298L674 286.1L646 241.3Z" fill="#f1f1f1" stroke="#f1f1f1"></path><path d="M691 294.1L731 304.9L716 293Z" fill="#f0f0f0" stroke="#f0f0f0"></path><path d="M323 269L316 360.9L338 347.9Z" fill="#f0f0f0" stroke="#f0f0f0"></path><path d="M338 347.9L325 401.6L396 399.7Z" fill="#f4f4f4" stroke="#f4f4f4"></path><path d="M565 153.4L555 145.6L532 147.6Z" fill="#f0f0f0" stroke="#f0f0f0"></path><path d="M338 432.4L372 452.4L388 425.6Z" fill="#fcfcfc" stroke="#fcfcfc"></path><path d="M388 425.6L397 479.4L452 443.6Z" fill="#f9f9f9" stroke="#f9f9f9"></path><path d="M316 360.9L325 401.6L338 347.9Z" fill="#fcfcfc" stroke="#fcfcfc"></path><path d="M325 401.6L327 407.6L396 399.7Z" fill="#fafafa" stroke="#fafafa"></path><path d="M421 495.3L483 443.4L452 443.6Z" fill="#fcfcfc" stroke="#fcfcfc"></path><path d="M515 465.4L523 496.4L554 439.6Z" fill="#f7f7f7" stroke="#f7f7f7"></path><path d="M449 100.7L433 132.6L472 160.4Z" fill="#fcfcfc" stroke="#fcfcfc"></path><path d="M444 165.4L385 132.6L389 209.3Z" fill="#f7f7f7" stroke="#f7f7f7"></path><path d="M449 100.7L472 160.4L532 147.6Z" fill="#f0f0f0" stroke="#f0f0f0"></path><path d="M666 309.9L674 286.1L656 298Z" fill="#f3f3f3" stroke="#f3f3f3"></path><path d="M366 516.3L397 479.4L372 452.4Z" fill="#fafafa" stroke="#fafafa"></path><path d="M372 452.4L397 479.4L388 425.6Z" fill="#f0f0f0" stroke="#f0f0f0"></path><path d="M327 407.6L338 432.4L388 425.6Z" fill="#f7f7f7" stroke="#f7f7f7"></path><path d="M669 186.3L627 175.4L624 229.1Z" fill="#f7f7f7" stroke="#f7f7f7"></path><path d="M598 185.3L627 175.4L565 153.4Z" fill="#fcfcfc" stroke="#fcfcfc"></path><path d="M570 101.7L548 102.6L555 145.6Z" fill="#f4f4f4" stroke="#f4f4f4"></path><path d="M669 186.3L624 229.1L646 241.3Z" fill="#fcfcfc" stroke="#fcfcfc"></path><path d="M397 479.4L421 495.3L452 443.6Z" fill="#f6f6f6" stroke="#f6f6f6"></path><path d="M666 309.9L691 294.1L674 286.1Z" fill="#f3f3f3" stroke="#f3f3f3"></path><path d="M744 199.4L669 186.3L646 241.3Z" fill="#f0f0f0" stroke="#f0f0f0"></path><path d="M691 294.1L666 309.9L731 304.9Z" fill="#fcfcfc" stroke="#fcfcfc"></path><path d="M610 433.6L668 412.7L630 400.7Z" fill="#f9f9f9" stroke="#f9f9f9"></path><path d="M630 400.7L668 412.7L645 348.9Z" fill="#f7f7f7" stroke="#f7f7f7"></path><path d="M670 453.4L668 412.7L610 433.6Z" fill="#f9f9f9" stroke="#f9f9f9"></path><path d="M346 150.4L367 214.3L389 209.3Z" fill="#ffffff" stroke="#ffffff"></path><path d="M367 214.3L325 185.4L344 254.1Z" fill="#f6f6f6" stroke="#f6f6f6"></path><path d="M323 269L279 357.7L316 360.9Z" fill="#f3f3f3" stroke="#f3f3f3"></path><path d="M433 132.6L385 132.6L444 165.4Z" fill="#f3f3f3" stroke="#f3f3f3"></path><path d="M421 495.3L504 522.1L483 443.4Z" fill="#f1f1f1" stroke="#f1f1f1"></path><path d="M523 496.4L577 504.4L554 439.6Z" fill="#ffffff" stroke="#ffffff"></path><path d="M578 516.3L577 504.4L523 496.4Z" fill="#f0f0f0" stroke="#f0f0f0"></path><path d="M325 185.4L284 253.3L344 254.1Z" fill="#fcfcfc" stroke="#fcfcfc"></path><path d="M316 360.9L279 357.7L325 401.6Z" fill="#f3f3f3" stroke="#f3f3f3"></path><path d="M257 264L279 357.7L323 269Z" fill="#fcfcfc" stroke="#fcfcfc"></path><path d="M325 401.6L302 436.6L327 407.6Z" fill="#fafafa" stroke="#fafafa"></path><path d="M327 407.6L302 436.6L338 432.4Z" fill="#f7f7f7" stroke="#f7f7f7"></path><path d="M548 102.6L449 100.7L532 147.6Z" fill="#f1f1f1" stroke="#f1f1f1"></path><path d="M433 132.6L414 105.6L385 132.6Z" fill="#f9f9f9" stroke="#f9f9f9"></path><path d="M548 102.6L532 147.6L555 145.6Z" fill="#f6f6f6" stroke="#f6f6f6"></path><path d="M350 92.7L346 150.4L385 132.6Z" fill="#f1f1f1" stroke="#f1f1f1"></path><path d="M385 132.6L346 150.4L389 209.3Z" fill="#f4f4f4" stroke="#f4f4f4"></path><path d="M244 235.1L257 264L284 253.3Z" fill="#f6f6f6" stroke="#f6f6f6"></path><path d="M570 101.7L555 145.6L565 153.4Z" fill="#f7f7f7" stroke="#f7f7f7"></path><path d="M449 100.7L414 105.6L433 132.6Z" fill="#f9f9f9" stroke="#f9f9f9"></path><path d="M744 199.4L646 241.3L755 222.3Z" fill="#fdfdfd" stroke="#fdfdfd"></path><path d="M630 109.7L570 101.7L565 153.4Z" fill="#f3f3f3" stroke="#f3f3f3"></path><path d="M576 537.3L578 516.3L523 496.4Z" fill="#fafafa" stroke="#fafafa"></path><path d="M577 504.4L621 493.4L610 433.6Z" fill="#ffffff" stroke="#ffffff"></path><path d="M276 414.7L302 436.6L325 401.6Z" fill="#f3f3f3" stroke="#f3f3f3"></path><path d="M338 432.4L366 516.3L372 452.4Z" fill="#fafafa" stroke="#fafafa"></path><path d="M456 559.1L471 540.1L421 495.3Z" fill="#fdfdfd" stroke="#fdfdfd"></path><path d="M602 530.1L621 493.4L577 504.4Z" fill="#fdfdfd" stroke="#fdfdfd"></path><path d="M621 493.4L640 478.3L610 433.6Z" fill="#f6f6f6" stroke="#f6f6f6"></path><path d="M711 166.6L672 181.4L669 186.3Z" fill="#fafafa" stroke="#fafafa"></path><path d="M669 186.3L672 181.4L627 175.4Z" fill="#ffffff" stroke="#ffffff"></path><path d="M630 109.7L565 153.4L627 175.4Z" fill="#ffffff" stroke="#ffffff"></path><path d="M488 49.7L438 87.7L449 100.7Z" fill="#fcfcfc" stroke="#fcfcfc"></path><path d="M731 304.9L666 309.9L723 385.7Z" fill="#fcfcfc" stroke="#fcfcfc"></path><path d="M691 294.1L716 293L674 286.1Z" fill="#f9f9f9" stroke="#f9f9f9"></path><path d="M421 495.3L471 540.1L504 522.1Z" fill="#ffffff" stroke="#ffffff"></path><path d="M504 522.1L576 537.3L523 496.4Z" fill="#f7f7f7" stroke="#f7f7f7"></path><path d="M377 526.1L421 495.3L397 479.4Z" fill="#f3f3f3" stroke="#f3f3f3"></path><path d="M488 49.7L449 100.7L548 102.6Z" fill="#f7f7f7" stroke="#f7f7f7"></path><path d="M449 100.7L438 87.7L414 105.6Z" fill="#f4f4f4" stroke="#f4f4f4"></path><path d="M414 105.6L350 92.7L385 132.6Z" fill="#ffffff" stroke="#ffffff"></path><path d="M640 478.3L670 453.4L610 433.6Z" fill="#f1f1f1" stroke="#f1f1f1"></path><path d="M723 385.7L666 309.9L645 348.9Z" fill="#f7f7f7" stroke="#f7f7f7"></path><path d="M279 357.7L276 414.7L325 401.6Z" fill="#fdfdfd" stroke="#fdfdfd"></path><path d="M262 379.9L276 414.7L279 357.7Z" fill="#f0f0f0" stroke="#f0f0f0"></path><path d="M288 183.4L284 253.3L325 185.4Z" fill="#fdfdfd" stroke="#fdfdfd"></path><path d="M284 253.3L257 264L323 269Z" fill="#f4f4f4" stroke="#f4f4f4"></path><path d="M247 376.9L262 379.9L279 357.7Z" fill="#f3f3f3" stroke="#f3f3f3"></path><path d="M743 466.4L725 502.4L745 474.3Z" fill="#f1f1f1" stroke="#f1f1f1"></path><path d="M670 453.4L683 447.6L668 412.7Z" fill="#f6f6f6" stroke="#f6f6f6"></path><path d="M703 525.1L670 453.4L640 478.3Z" fill="#fafafa" stroke="#fafafa"></path><path d="M471 540.1L498 549.3L504 522.1Z" fill="#fcfcfc" stroke="#fcfcfc"></path><path d="M301 127.6L325 185.4L346 150.4Z" fill="#fafafa" stroke="#fafafa"></path><path d="M301 127.6L288 183.4L325 185.4Z" fill="#fafafa" stroke="#fafafa"></path><path d="M350 538.1L366 516.3L331 543.3Z" fill="#ffffff" stroke="#ffffff"></path><path d="M302 436.6L366 516.3L338 432.4Z" fill="#f4f4f4" stroke="#f4f4f4"></path><path d="M471 540.1L456 559.1L498 549.3Z" fill="#fafafa" stroke="#fafafa"></path><path d="M366 516.3L377 526.1L397 479.4Z" fill="#f3f3f3" stroke="#f3f3f3"></path><path d="M498 549.3L576 537.3L504 522.1Z" fill="#f9f9f9" stroke="#f9f9f9"></path><path d="M578 516.3L602 530.1L577 504.4Z" fill="#f9f9f9" stroke="#f9f9f9"></path><path d="M621 493.4L634 541.3L640 478.3Z" fill="#f7f7f7" stroke="#f7f7f7"></path><path d="M723 385.7L645 348.9L668 412.7Z" fill="#f9f9f9" stroke="#f9f9f9"></path><path d="M744 199.4L711 166.6L669 186.3Z" fill="#f3f3f3" stroke="#f3f3f3"></path><path d="M576 537.3L602 530.1L578 516.3Z" fill="#ffffff" stroke="#ffffff"></path><path d="M683 447.6L723 385.7L668 412.7Z" fill="#f9f9f9" stroke="#f9f9f9"></path><path d="M667 136.6L630 109.7L627 175.4Z" fill="#f6f6f6" stroke="#f6f6f6"></path><path d="M388 544.3L456 559.1L421 495.3Z" fill="#fdfdfd" stroke="#fdfdfd"></path><path d="M618 560.1L602 530.1L576 537.3Z" fill="#f7f7f7" stroke="#f7f7f7"></path><path d="M208 286L247 376.9L279 357.7Z" fill="#fafafa" stroke="#fafafa"></path><path d="M262 379.9L247 376.9L276 414.7Z" fill="#fdfdfd" stroke="#fdfdfd"></path><path d="M672 181.4L667 136.6L627 175.4Z" fill="#f9f9f9" stroke="#f9f9f9"></path><path d="M711 166.6L667 136.6L672 181.4Z" fill="#f1f1f1" stroke="#f1f1f1"></path><path d="M377 526.1L388 544.3L421 495.3Z" fill="#fafafa" stroke="#fafafa"></path><path d="M350 538.1L388 544.3L377 526.1Z" fill="#f1f1f1" stroke="#f1f1f1"></path><path d="M350 538.1L377 526.1L366 516.3Z" fill="#fcfcfc" stroke="#fcfcfc"></path><path d="M624 53.9L553 65.7L570 101.7Z" fill="#f3f3f3" stroke="#f3f3f3"></path><path d="M570 101.7L553 65.7L548 102.6Z" fill="#fcfcfc" stroke="#fcfcfc"></path><path d="M288 183.4L244 235.1L284 253.3Z" fill="#f7f7f7" stroke="#f7f7f7"></path><path d="M257 264L208 286L279 357.7Z" fill="#ffffff" stroke="#ffffff"></path><path d="M368 40.9L414 105.6L438 87.7Z" fill="#f3f3f3" stroke="#f3f3f3"></path><path d="M368 40.9L350 92.7L414 105.6Z" fill="#f9f9f9" stroke="#f9f9f9"></path><path d="M241 187.3L233 228.3L244 235.1Z" fill="#f4f4f4" stroke="#f4f4f4"></path><path d="M553 65.7L488 49.7L548 102.6Z" fill="#fafafa" stroke="#fafafa"></path><path d="M350 92.7L301 127.6L346 150.4Z" fill="#fdfdfd" stroke="#fdfdfd"></path><path d="M247 376.9L258 440.6L276 414.7Z" fill="#fcfcfc" stroke="#fcfcfc"></path><path d="M276 414.7L258 440.6L302 436.6Z" fill="#f3f3f3" stroke="#f3f3f3"></path><path d="M331 543.3L366 516.3L302 436.6Z" fill="#f4f4f4" stroke="#f4f4f4"></path><path d="M472 600L483 600L456 559.1Z" fill="#f3f3f3" stroke="#f3f3f3"></path><path d="M646 241.3L674 286.1L755 222.3Z" fill="#f1f1f1" stroke="#f1f1f1"></path><path d="M667 136.6L666 88.6L630 109.7Z" fill="#f4f4f4" stroke="#f4f4f4"></path><path d="M241 187.3L244 235.1L288 183.4Z" fill="#f4f4f4" stroke="#f4f4f4"></path><path d="M213 233.1L208 286L257 264Z" fill="#f6f6f6" stroke="#f6f6f6"></path><path d="M618 560.1L634 541.3L602 530.1Z" fill="#fcfcfc" stroke="#fcfcfc"></path><path d="M602 530.1L634 541.3L621 493.4Z" fill="#fafafa" stroke="#fafafa"></path><path d="M782 380.7L778 360.9L723 385.7Z" fill="#f7f7f7" stroke="#f7f7f7"></path><path d="M618 560.1L576 537.3L611 600Z" fill="#f1f1f1" stroke="#f1f1f1"></path><path d="M484 17.9L463 36.9L488 49.7Z" fill="#f9f9f9" stroke="#f9f9f9"></path><path d="M488 49.7L463 36.9L438 87.7Z" fill="#ffffff" stroke="#ffffff"></path><path d="M254 156.6L241 187.3L288 183.4Z" fill="#f3f3f3" stroke="#f3f3f3"></path><path d="M236 490.3L331 543.3L302 436.6Z" fill="#f7f7f7" stroke="#f7f7f7"></path><path d="M374 600L399 588.1L388 544.3Z" fill="#fafafa" stroke="#fafafa"></path><path d="M755 222.3L674 286.1L716 293Z" fill="#f1f1f1" stroke="#f1f1f1"></path><path d="M755 222.3L716 293L790 263Z" fill="#f4f4f4" stroke="#f4f4f4"></path><path d="M519 600L576 537.3L498 549.3Z" fill="#fdfdfd" stroke="#fdfdfd"></path><path d="M301 127.6L254 156.6L288 183.4Z" fill="#f4f4f4" stroke="#f4f4f4"></path><path d="M241 148.6L254 156.6L273 94.7Z" fill="#f6f6f6" stroke="#f6f6f6"></path><path d="M213 233.1L244 235.1L233 228.3Z" fill="#f6f6f6" stroke="#f6f6f6"></path><path d="M213 233.1L257 264L244 235.1Z" fill="#f0f0f0" stroke="#f0f0f0"></path><path d="M247 376.9L212 373.7L258 440.6Z" fill="#f9f9f9" stroke="#f9f9f9"></path><path d="M775 299L716 293L731 304.9Z" fill="#f9f9f9" stroke="#f9f9f9"></path><path d="M208 286L212 373.7L247 376.9Z" fill="#f7f7f7" stroke="#f7f7f7"></path><path d="M793 194.3L738 177.4L744 199.4Z" fill="#f7f7f7" stroke="#f7f7f7"></path><path d="M744 199.4L738 177.4L711 166.6Z" fill="#fdfdfd" stroke="#fdfdfd"></path><path d="M700 87.7L666 88.6L667 136.6Z" fill="#f1f1f1" stroke="#f1f1f1"></path><path d="M700 87.7L667 136.6L735 101.6Z" fill="#f6f6f6" stroke="#f6f6f6"></path><path d="M630 109.7L627 60.9L570 101.7Z" fill="#f3f3f3" stroke="#f3f3f3"></path><path d="M535 17.9L484 17.9L488 49.7Z" fill="#fcfcfc" stroke="#fcfcfc"></path><path d="M173 221.3L213 233.1L241 187.3Z" fill="#f0f0f0" stroke="#f0f0f0"></path><path d="M241 187.3L213 233.1L233 228.3Z" fill="#f6f6f6" stroke="#f6f6f6"></path><path d="M666 88.6L627 60.9L630 109.7Z" fill="#ffffff" stroke="#ffffff"></path><path d="M778 360.9L731 304.9L723 385.7Z" fill="#f3f3f3" stroke="#f3f3f3"></path><path d="M778 360.9L775 299L731 304.9Z" fill="#f4f4f4" stroke="#f4f4f4"></path><path d="M472 600L456 559.1L399 588.1Z" fill="#fdfdfd" stroke="#fdfdfd"></path><path d="M456 559.1L483 600L498 549.3Z" fill="#f0f0f0" stroke="#f0f0f0"></path><path d="M484 17.9L439 27.9L463 36.9Z" fill="#f4f4f4" stroke="#f4f4f4"></path><path d="M463 36.9L439 27.9L438 87.7Z" fill="#f6f6f6" stroke="#f6f6f6"></path><path d="M273 94.7L254 156.6L301 127.6Z" fill="#fcfcfc" stroke="#fcfcfc"></path><path d="M399 588.1L456 559.1L388 544.3Z" fill="#fafafa" stroke="#fafafa"></path><path d="M483 600L519 600L498 549.3Z" fill="#ffffff" stroke="#ffffff"></path><path d="M374 600L388 544.3L350 538.1Z" fill="#f9f9f9" stroke="#f9f9f9"></path><path d="M666 76.9L624 53.9L627 60.9Z" fill="#fcfcfc" stroke="#fcfcfc"></path><path d="M627 60.9L624 53.9L570 101.7Z" fill="#f9f9f9" stroke="#f9f9f9"></path><path d="M743 466.4L723 385.7L683 447.6Z" fill="#ffffff" stroke="#ffffff"></path><path d="M535 17.9L488 49.7L553 65.7Z" fill="#fcfcfc" stroke="#fcfcfc"></path><path d="M666 88.6L666 76.9L627 60.9Z" fill="#f6f6f6" stroke="#f6f6f6"></path><path d="M700 87.7L666 76.9L666 88.6Z" fill="#fcfcfc" stroke="#fcfcfc"></path><path d="M273 94.7L301 127.6L350 92.7Z" fill="#fafafa" stroke="#fafafa"></path><path d="M254 156.6L241 148.6L241 187.3Z" fill="#f7f7f7" stroke="#f7f7f7"></path><path d="M395 0L368 40.9L439 27.9Z" fill="#f1f1f1" stroke="#f1f1f1"></path><path d="M439 27.9L368 40.9L438 87.7Z" fill="#f3f3f3" stroke="#f3f3f3"></path><path d="M184 440.6L234 465.4L258 440.6Z" fill="#ffffff" stroke="#ffffff"></path><path d="M258 440.6L236 490.3L302 436.6Z" fill="#f3f3f3" stroke="#f3f3f3"></path><path d="M553 0L535 17.9L554 0Z" fill="#fdfdfd" stroke="#fdfdfd"></path><path d="M703 525.1L640 478.3L634 541.3Z" fill="#ffffff" stroke="#ffffff"></path><path d="M725 502.4L683 447.6L670 453.4Z" fill="#fafafa" stroke="#fafafa"></path><path d="M755 222.3L775 224.1L744 199.4Z" fill="#fcfcfc" stroke="#fcfcfc"></path><path d="M735 101.6L667 136.6L711 166.6Z" fill="#fcfcfc" stroke="#fcfcfc"></path><path d="M790 263L775 224.1L755 222.3Z" fill="#f6f6f6" stroke="#f6f6f6"></path><path d="M790 263L716 293L775 299Z" fill="#fcfcfc" stroke="#fcfcfc"></path><path d="M774 443.6L782 380.7L723 385.7Z" fill="#f0f0f0" stroke="#f0f0f0"></path><path d="M802 251.1L790 263L838 350.9Z" fill="#f6f6f6" stroke="#f6f6f6"></path><path d="M681 600L703 525.1L634 541.3Z" fill="#f9f9f9" stroke="#f9f9f9"></path><path d="M725 502.4L743 466.4L683 447.6Z" fill="#f3f3f3" stroke="#f3f3f3"></path><path d="M743 466.4L774 443.6L723 385.7Z" fill="#f0f0f0" stroke="#f0f0f0"></path><path d="M703 525.1L725 502.4L670 453.4Z" fill="#f6f6f6" stroke="#f6f6f6"></path><path d="M282 52.7L273 94.7L350 92.7Z" fill="#fcfcfc" stroke="#fcfcfc"></path><path d="M790 263L775 299L838 350.9Z" fill="#f9f9f9" stroke="#f9f9f9"></path><path d="M666 76.9L638 0L624 53.9Z" fill="#f7f7f7" stroke="#f7f7f7"></path><path d="M735 101.6L711 166.6L740 103.7Z" fill="#f1f1f1" stroke="#f1f1f1"></path><path d="M208 488.4L236 490.3L234 465.4Z" fill="#fcfcfc" stroke="#fcfcfc"></path><path d="M234 465.4L236 490.3L258 440.6Z" fill="#f4f4f4" stroke="#f4f4f4"></path><path d="M345 600L374 600L350 538.1Z" fill="#f4f4f4" stroke="#f4f4f4"></path><path d="M345 600L350 538.1L331 543.3Z" fill="#fdfdfd" stroke="#fdfdfd"></path><path d="M399 588.1L374 600L472 600Z" fill="#f1f1f1" stroke="#f1f1f1"></path><path d="M795 499.3L759 464.6L745 474.3Z" fill="#f6f6f6" stroke="#f6f6f6"></path><path d="M745 474.3L759 464.6L743 466.4Z" fill="#f0f0f0" stroke="#f0f0f0"></path><path d="M535 17.9L494 0L484 17.9Z" fill="#ffffff" stroke="#ffffff"></path><path d="M484 17.9L419 0L439 27.9Z" fill="#f1f1f1" stroke="#f1f1f1"></path><path d="M553 0L494 0L535 17.9Z" fill="#ffffff" stroke="#ffffff"></path><path d="M519 600L611 600L576 537.3Z" fill="#fdfdfd" stroke="#fdfdfd"></path><path d="M618 560.1L681 600L634 541.3Z" fill="#f1f1f1" stroke="#f1f1f1"></path><path d="M759 464.6L774 443.6L743 466.4Z" fill="#f7f7f7" stroke="#f7f7f7"></path><path d="M611 600L620 600L618 560.1Z" fill="#f4f4f4" stroke="#f4f4f4"></path><path d="M213 233.1L172 281.1L208 286Z" fill="#f1f1f1" stroke="#f1f1f1"></path><path d="M208 286L168 321.9L212 373.7Z" fill="#f7f7f7" stroke="#f7f7f7"></path><path d="M212 373.7L183 407.7L258 440.6Z" fill="#fdfdfd" stroke="#fdfdfd"></path><path d="M173 221.3L172 281.1L213 233.1Z" fill="#f7f7f7" stroke="#f7f7f7"></path><path d="M554 0L553 65.7L624 53.9Z" fill="#f3f3f3" stroke="#f3f3f3"></path><path d="M554 0L535 17.9L553 65.7Z" fill="#f3f3f3" stroke="#f3f3f3"></path><path d="M638 0L554 0L624 53.9Z" fill="#f7f7f7" stroke="#f7f7f7"></path><path d="M494 0L419 0L484 17.9Z" fill="#f0f0f0" stroke="#f0f0f0"></path><path d="M328 13.9L282 52.7L350 92.7Z" fill="#fafafa" stroke="#fafafa"></path><path d="M159 391.6L183 407.7L212 373.7Z" fill="#fafafa" stroke="#fafafa"></path><path d="M806 245.3L802 251.1L861 236.1Z" fill="#f6f6f6" stroke="#f6f6f6"></path><path d="M790 263L802 251.1L775 224.1Z" fill="#ffffff" stroke="#ffffff"></path><path d="M740 103.7L711 166.6L738 177.4Z" fill="#f7f7f7" stroke="#f7f7f7"></path><path d="M775 299L778 360.9L810 364.9Z" fill="#f3f3f3" stroke="#f3f3f3"></path><path d="M172 281.1L168 321.9L208 286Z" fill="#ffffff" stroke="#ffffff"></path><path d="M759 464.6L777 451.6L774 443.6Z" fill="#fafafa" stroke="#fafafa"></path><path d="M831 418.7L810 364.9L782 380.7Z" fill="#f0f0f0" stroke="#f0f0f0"></path><path d="M815 442.6L777 451.6L795 499.3Z" fill="#f9f9f9" stroke="#f9f9f9"></path><path d="M777 451.6L759 464.6L795 499.3Z" fill="#f4f4f4" stroke="#f4f4f4"></path><path d="M324 600L345 600L331 543.3Z" fill="#f0f0f0" stroke="#f0f0f0"></path><path d="M793 194.3L744 199.4L775 224.1Z" fill="#f3f3f3" stroke="#f3f3f3"></path><path d="M702 0L638 0L666 76.9Z" fill="#ffffff" stroke="#ffffff"></path><path d="M810 364.9L778 360.9L782 380.7Z" fill="#f6f6f6" stroke="#f6f6f6"></path><path d="M802 251.1L806 245.3L775 224.1Z" fill="#f4f4f4" stroke="#f4f4f4"></path><path d="M419 0L395 0L439 27.9Z" fill="#ffffff" stroke="#ffffff"></path><path d="M172 281.1L162 319.9L168 321.9Z" fill="#f9f9f9" stroke="#f9f9f9"></path><path d="M168 321.9L157 335L212 373.7Z" fill="#ffffff" stroke="#ffffff"></path><path d="M815 442.6L782 380.7L774 443.6Z" fill="#fafafa" stroke="#fafafa"></path><path d="M806 245.3L793 194.3L775 224.1Z" fill="#f6f6f6" stroke="#f6f6f6"></path><path d="M779 89.7L740 103.7L738 177.4Z" fill="#f0f0f0" stroke="#f0f0f0"></path><path d="M738 35.9L666 76.9L700 87.7Z" fill="#fdfdfd" stroke="#fdfdfd"></path><path d="M224 529.3L281 566.1L236 490.3Z" fill="#fcfcfc" stroke="#fcfcfc"></path><path d="M236 490.3L281 566.1L331 543.3Z" fill="#fcfcfc" stroke="#fcfcfc"></path><path d="M194 137.4L241 187.3L241 148.6Z" fill="#f0f0f0" stroke="#f0f0f0"></path><path d="M173 155.4L173 221.3L241 187.3Z" fill="#f7f7f7" stroke="#f7f7f7"></path><path d="M172 281.1L147 293L162 319.9Z" fill="#fafafa" stroke="#fafafa"></path><path d="M159 391.6L184 440.6L183 407.7Z" fill="#f7f7f7" stroke="#f7f7f7"></path><path d="M183 407.7L184 440.6L258 440.6Z" fill="#f7f7f7" stroke="#f7f7f7"></path><path d="M184 440.6L208 488.4L234 465.4Z" fill="#fdfdfd" stroke="#fdfdfd"></path><path d="M395 0L377 0L368 40.9Z" fill="#f3f3f3" stroke="#f3f3f3"></path><path d="M328 13.9L350 92.7L368 40.9Z" fill="#ffffff" stroke="#ffffff"></path><path d="M208 70.7L194 137.4L241 148.6Z" fill="#fafafa" stroke="#fafafa"></path><path d="M308 600L324 600L331 543.3Z" fill="#fdfdfd" stroke="#fdfdfd"></path><path d="M147 293L157 335L162 319.9Z" fill="#f9f9f9" stroke="#f9f9f9"></path><path d="M162 319.9L157 335L168 321.9Z" fill="#fdfdfd" stroke="#fdfdfd"></path><path d="M377 0L328 13.9L368 40.9Z" fill="#fafafa" stroke="#fafafa"></path><path d="M157 335L159 391.6L212 373.7Z" fill="#f3f3f3" stroke="#f3f3f3"></path><path d="M172 510.3L224 529.3L208 488.4Z" fill="#f0f0f0" stroke="#f0f0f0"></path><path d="M229 600L308 600L281 566.1Z" fill="#f6f6f6" stroke="#f6f6f6"></path><path d="M281 566.1L308 600L331 543.3Z" fill="#f6f6f6" stroke="#f6f6f6"></path><path d="M114 262.1L147 293L172 281.1Z" fill="#f7f7f7" stroke="#f7f7f7"></path><path d="M157 335L96 386.7L159 391.6Z" fill="#f1f1f1" stroke="#f1f1f1"></path><path d="M208 488.4L224 529.3L236 490.3Z" fill="#fafafa" stroke="#fafafa"></path><path d="M170 475.4L208 488.4L184 440.6Z" fill="#ffffff" stroke="#ffffff"></path><path d="M208 70.7L241 148.6L273 94.7Z" fill="#f3f3f3" stroke="#f3f3f3"></path><path d="M173 221.3L114 262.1L172 281.1Z" fill="#f0f0f0" stroke="#f0f0f0"></path><path d="M738 35.9L700 87.7L735 101.6Z" fill="#f7f7f7" stroke="#f7f7f7"></path><path d="M620 600L681 600L618 560.1Z" fill="#f4f4f4" stroke="#f4f4f4"></path><path d="M703 525.1L756 578.1L725 502.4Z" fill="#f1f1f1" stroke="#f1f1f1"></path><path d="M224 529.3L248 564.1L281 566.1Z" fill="#f0f0f0" stroke="#f0f0f0"></path><path d="M157 111.6L173 155.4L194 137.4Z" fill="#f1f1f1" stroke="#f1f1f1"></path><path d="M194 137.4L173 155.4L241 187.3Z" fill="#f7f7f7" stroke="#f7f7f7"></path><path d="M795 499.3L745 474.3L725 502.4Z" fill="#f6f6f6" stroke="#f6f6f6"></path><path d="M777 451.6L815 442.6L774 443.6Z" fill="#fdfdfd" stroke="#fdfdfd"></path><path d="M810 364.9L838 350.9L775 299Z" fill="#fdfdfd" stroke="#fdfdfd"></path><path d="M831 418.7L838 350.9L810 364.9Z" fill="#fafafa" stroke="#fafafa"></path><path d="M806 245.3L822 175.4L793 194.3Z" fill="#f9f9f9" stroke="#f9f9f9"></path><path d="M681 600L705 595.1L703 525.1Z" fill="#f3f3f3" stroke="#f3f3f3"></path><path d="M109 441.4L170 475.4L184 440.6Z" fill="#fdfdfd" stroke="#fdfdfd"></path><path d="M184 560.1L229 600L248 564.1Z" fill="#f1f1f1" stroke="#f1f1f1"></path><path d="M297 0L251 42.9L282 52.7Z" fill="#f6f6f6" stroke="#f6f6f6"></path><path d="M282 52.7L251 42.9L273 94.7Z" fill="#f1f1f1" stroke="#f1f1f1"></path><path d="M815 442.6L831 418.7L782 380.7Z" fill="#f9f9f9" stroke="#f9f9f9"></path><path d="M803 505.3L795 499.3L780 555.1Z" fill="#fcfcfc" stroke="#fcfcfc"></path><path d="M900 410.7L875 396.7L900 415.6Z" fill="#f9f9f9" stroke="#f9f9f9"></path><path d="M829 166.4L822 175.4L850 183.3Z" fill="#fafafa" stroke="#fafafa"></path><path d="M816 107.6L779 89.7L738 177.4Z" fill="#fcfcfc" stroke="#fcfcfc"></path><path d="M740 103.7L779 89.7L735 101.6Z" fill="#fdfdfd" stroke="#fdfdfd"></path><path d="M377 0L306 0L328 13.9Z" fill="#fdfdfd" stroke="#fdfdfd"></path><path d="M328 13.9L306 0L282 52.7Z" fill="#f3f3f3" stroke="#f3f3f3"></path><path d="M306 0L297 0L282 52.7Z" fill="#f9f9f9" stroke="#f9f9f9"></path><path d="M816 107.6L738 177.4L793 194.3Z" fill="#ffffff" stroke="#ffffff"></path><path d="M780 555.1L795 499.3L725 502.4Z" fill="#ffffff" stroke="#ffffff"></path><path d="M795 499.3L849 478.4L815 442.6Z" fill="#fcfcfc" stroke="#fcfcfc"></path><path d="M218 20.9L208 70.7L251 42.9Z" fill="#f4f4f4" stroke="#f4f4f4"></path><path d="M251 42.9L208 70.7L273 94.7Z" fill="#fdfdfd" stroke="#fdfdfd"></path><path d="M850 183.3L822 175.4L806 245.3Z" fill="#fcfcfc" stroke="#fcfcfc"></path><path d="M822 175.4L816 107.6L793 194.3Z" fill="#fafafa" stroke="#fafafa"></path><path d="M779 89.7L738 35.9L735 101.6Z" fill="#f6f6f6" stroke="#f6f6f6"></path><path d="M170 544.3L172 510.3L118 540.3Z" fill="#fdfdfd" stroke="#fdfdfd"></path><path d="M170 475.4L172 510.3L208 488.4Z" fill="#f0f0f0" stroke="#f0f0f0"></path><path d="M109 441.4L184 440.6L159 391.6Z" fill="#f0f0f0" stroke="#f0f0f0"></path><path d="M681 600L731 600L705 595.1Z" fill="#fafafa" stroke="#fafafa"></path><path d="M705 595.1L756 578.1L703 525.1Z" fill="#f1f1f1" stroke="#f1f1f1"></path><path d="M116 225.1L114 262.1L173 221.3Z" fill="#ffffff" stroke="#ffffff"></path><path d="M147 293L97 311L157 335Z" fill="#fafafa" stroke="#fafafa"></path><path d="M116 225.1L173 221.3L122 193.3Z" fill="#f3f3f3" stroke="#f3f3f3"></path><path d="M731 600L756 578.1L705 595.1Z" fill="#f0f0f0" stroke="#f0f0f0"></path><path d="M738 35.9L702 0L666 76.9Z" fill="#f4f4f4" stroke="#f4f4f4"></path><path d="M756 578.1L780 555.1L725 502.4Z" fill="#f6f6f6" stroke="#f6f6f6"></path><path d="M900 278L802 251.1L838 350.9Z" fill="#f0f0f0" stroke="#f0f0f0"></path><path d="M900 278L861 236.1L802 251.1Z" fill="#f7f7f7" stroke="#f7f7f7"></path><path d="M122 193.3L173 221.3L173 155.4Z" fill="#fdfdfd" stroke="#fdfdfd"></path><path d="M779 89.7L749 31.9L738 35.9Z" fill="#f3f3f3" stroke="#f3f3f3"></path><path d="M738 35.9L713 0L702 0Z" fill="#fdfdfd" stroke="#fdfdfd"></path><path d="M787 48.9L749 31.9L779 89.7Z" fill="#f9f9f9" stroke="#f9f9f9"></path><path d="M861 236.1L850 183.3L806 245.3Z" fill="#fafafa" stroke="#fafafa"></path><path d="M829 166.4L816 107.6L822 175.4Z" fill="#f9f9f9" stroke="#f9f9f9"></path><path d="M731 0L713 0L738 35.9Z" fill="#f9f9f9" stroke="#f9f9f9"></path><path d="M133 151.6L122 193.3L173 155.4Z" fill="#f7f7f7" stroke="#f7f7f7"></path><path d="M833 85.7L816 107.6L869 131.6Z" fill="#f9f9f9" stroke="#f9f9f9"></path><path d="M208 70.7L157 111.6L194 137.4Z" fill="#f3f3f3" stroke="#f3f3f3"></path><path d="M184 560.1L248 564.1L224 529.3Z" fill="#fcfcfc" stroke="#fcfcfc"></path><path d="M248 564.1L229 600L281 566.1Z" fill="#f7f7f7" stroke="#f7f7f7"></path><path d="M157 111.6L133 151.6L173 155.4Z" fill="#fdfdfd" stroke="#fdfdfd"></path><path d="M75 213.3L114 262.1L116 225.1Z" fill="#f3f3f3" stroke="#f3f3f3"></path><path d="M67 341.9L97 311L38 287Z" fill="#f0f0f0" stroke="#f0f0f0"></path><path d="M114 262.1L97 311L147 293Z" fill="#f3f3f3" stroke="#f3f3f3"></path><path d="M170 544.3L184 560.1L224 529.3Z" fill="#f7f7f7" stroke="#f7f7f7"></path><path d="M170 544.3L224 529.3L172 510.3Z" fill="#fcfcfc" stroke="#fcfcfc"></path><path d="M297 0L249 0L251 42.9Z" fill="#f6f6f6" stroke="#f6f6f6"></path><path d="M208 70.7L159 79.7L157 111.6Z" fill="#ffffff" stroke="#ffffff"></path><path d="M109 494.4L172 510.3L170 475.4Z" fill="#f4f4f4" stroke="#f4f4f4"></path><path d="M798 0L731 0L749 31.9Z" fill="#fafafa" stroke="#fafafa"></path><path d="M749 31.9L731 0L738 35.9Z" fill="#ffffff" stroke="#ffffff"></path><path d="M849 478.4L831 418.7L815 442.6Z" fill="#f6f6f6" stroke="#f6f6f6"></path><path d="M831 418.7L875 396.7L838 350.9Z" fill="#f0f0f0" stroke="#f0f0f0"></path><path d="M849 478.4L795 499.3L803 505.3Z" fill="#f4f4f4" stroke="#f4f4f4"></path><path d="M249 0L218 20.9L251 42.9Z" fill="#f9f9f9" stroke="#f9f9f9"></path><path d="M844 506.4L849 478.4L803 505.3Z" fill="#fdfdfd" stroke="#fdfdfd"></path><path d="M833 85.7L787 48.9L779 89.7Z" fill="#f4f4f4" stroke="#f4f4f4"></path><path d="M97 311L96 386.7L157 335Z" fill="#f0f0f0" stroke="#f0f0f0"></path><path d="M109 140.4L105 198.3L122 193.3Z" fill="#f0f0f0" stroke="#f0f0f0"></path><path d="M122 193.3L105 198.3L116 225.1Z" fill="#f3f3f3" stroke="#f3f3f3"></path><path d="M97 419.7L109 441.4L159 391.6Z" fill="#f6f6f6" stroke="#f6f6f6"></path><path d="M875 396.7L889 332L838 350.9Z" fill="#fafafa" stroke="#fafafa"></path><path d="M861 236.1L900 213.3L850 183.3Z" fill="#fcfcfc" stroke="#fcfcfc"></path><path d="M157 111.6L134 120.7L133 151.6Z" fill="#f9f9f9" stroke="#f9f9f9"></path><path d="M133 151.6L109 140.4L122 193.3Z" fill="#fcfcfc" stroke="#fcfcfc"></path><path d="M119 85.7L134 120.7L157 111.6Z" fill="#f1f1f1" stroke="#f1f1f1"></path><path d="M158 71.9L159 79.7L208 70.7Z" fill="#f3f3f3" stroke="#f3f3f3"></path><path d="M780 555.1L844 506.4L803 505.3Z" fill="#fcfcfc" stroke="#fcfcfc"></path><path d="M900 415.6L875 396.7L900 441.4Z" fill="#f4f4f4" stroke="#f4f4f4"></path><path d="M862 525.3L844 506.4L780 555.1Z" fill="#f9f9f9" stroke="#f9f9f9"></path><path d="M777 600L780 555.1L756 578.1Z" fill="#f7f7f7" stroke="#f7f7f7"></path><path d="M96 386.7L97 419.7L159 391.6Z" fill="#f4f4f4" stroke="#f4f4f4"></path><path d="M731 600L777 600L756 578.1Z" fill="#f7f7f7" stroke="#f7f7f7"></path><path d="M173 36.9L158 71.9L208 70.7Z" fill="#f9f9f9" stroke="#f9f9f9"></path><path d="M159 79.7L119 85.7L157 111.6Z" fill="#f7f7f7" stroke="#f7f7f7"></path><path d="M900 410.7L900 328.9L875 396.7Z" fill="#f3f3f3" stroke="#f3f3f3"></path><path d="M875 396.7L900 328.9L889 332Z" fill="#f1f1f1" stroke="#f1f1f1"></path><path d="M889 332L900 278L838 350.9Z" fill="#f9f9f9" stroke="#f9f9f9"></path><path d="M869 131.6L816 107.6L829 166.4Z" fill="#f4f4f4" stroke="#f4f4f4"></path><path d="M816 107.6L833 85.7L779 89.7Z" fill="#f7f7f7" stroke="#f7f7f7"></path><path d="M787 48.9L798 0L749 31.9Z" fill="#ffffff" stroke="#ffffff"></path><path d="M869 131.6L829 166.4L850 183.3Z" fill="#f1f1f1" stroke="#f1f1f1"></path><path d="M900 328.9L900 278L889 332Z" fill="#ffffff" stroke="#ffffff"></path><path d="M900 278L900 269.1L861 236.1Z" fill="#f1f1f1" stroke="#f1f1f1"></path><path d="M119 85.7L109 140.4L134 120.7Z" fill="#f4f4f4" stroke="#f4f4f4"></path><path d="M134 120.7L109 140.4L133 151.6Z" fill="#fdfdfd" stroke="#fdfdfd"></path><path d="M38 287L97 311L114 262.1Z" fill="#f6f6f6" stroke="#f6f6f6"></path><path d="M209 0L173 36.9L218 20.9Z" fill="#f7f7f7" stroke="#f7f7f7"></path><path d="M218 20.9L173 36.9L208 70.7Z" fill="#fdfdfd" stroke="#fdfdfd"></path><path d="M158 71.9L119 85.7L159 79.7Z" fill="#fafafa" stroke="#fafafa"></path><path d="M249 0L209 0L218 20.9Z" fill="#f9f9f9" stroke="#f9f9f9"></path><path d="M50 474.3L109 494.4L109 441.4Z" fill="#fcfcfc" stroke="#fcfcfc"></path><path d="M109 441.4L109 494.4L170 475.4Z" fill="#f3f3f3" stroke="#f3f3f3"></path><path d="M168 600L170 600L184 560.1Z" fill="#f7f7f7" stroke="#f7f7f7"></path><path d="M184 560.1L170 600L229 600Z" fill="#f1f1f1" stroke="#f1f1f1"></path><path d="M900 148.6L869 131.6L850 183.3Z" fill="#f9f9f9" stroke="#f9f9f9"></path><path d="M96 386.7L68 397.6L97 419.7Z" fill="#f6f6f6" stroke="#f6f6f6"></path><path d="M97 419.7L51 422.6L109 441.4Z" fill="#f1f1f1" stroke="#f1f1f1"></path><path d="M97 311L67 341.9L96 386.7Z" fill="#f4f4f4" stroke="#f4f4f4"></path><path d="M75 213.3L116 225.1L105 198.3Z" fill="#f0f0f0" stroke="#f0f0f0"></path><path d="M875 396.7L831 418.7L900 441.4Z" fill="#fcfcfc" stroke="#fcfcfc"></path><path d="M900 269.1L900 213.3L861 236.1Z" fill="#f0f0f0" stroke="#f0f0f0"></path><path d="M74 202.4L75 213.3L105 198.3Z" fill="#f0f0f0" stroke="#f0f0f0"></path><path d="M900 441.4L831 418.7L849 478.4Z" fill="#fdfdfd" stroke="#fdfdfd"></path><path d="M64 158.6L74 202.4L105 198.3Z" fill="#fafafa" stroke="#fafafa"></path><path d="M0 334L53 356.9L67 341.9Z" fill="#f7f7f7" stroke="#f7f7f7"></path><path d="M53 356.9L68 397.6L96 386.7Z" fill="#fafafa" stroke="#fafafa"></path><path d="M168 600L184 560.1L170 544.3Z" fill="#f6f6f6" stroke="#f6f6f6"></path><path d="M900 213.3L900 188.4L850 183.3Z" fill="#f1f1f1" stroke="#f1f1f1"></path><path d="M840 600L862 525.3L780 555.1Z" fill="#fcfcfc" stroke="#fcfcfc"></path><path d="M844 506.4L862 525.3L849 478.4Z" fill="#f9f9f9" stroke="#f9f9f9"></path><path d="M118 540.3L168 600L170 544.3Z" fill="#f6f6f6" stroke="#f6f6f6"></path><path d="M900 475.3L900 441.4L849 478.4Z" fill="#f0f0f0" stroke="#f0f0f0"></path><path d="M156 0L119 85.7L158 71.9Z" fill="#f3f3f3" stroke="#f3f3f3"></path><path d="M109 140.4L64 158.6L105 198.3Z" fill="#fdfdfd" stroke="#fdfdfd"></path><path d="M156 0L158 71.9L173 36.9Z" fill="#f9f9f9" stroke="#f9f9f9"></path><path d="M99 530.1L118 540.3L109 494.4Z" fill="#ffffff" stroke="#ffffff"></path><path d="M109 494.4L118 540.3L172 510.3Z" fill="#fafafa" stroke="#fafafa"></path><path d="M67 341.9L53 356.9L96 386.7Z" fill="#fdfdfd" stroke="#fdfdfd"></path><path d="M53 507.4L99 530.1L109 494.4Z" fill="#f7f7f7" stroke="#f7f7f7"></path><path d="M38 287L114 262.1L34 233.1Z" fill="#ffffff" stroke="#ffffff"></path><path d="M890 92.7L833 85.7L869 131.6Z" fill="#f7f7f7" stroke="#f7f7f7"></path><path d="M846 0L787 48.9L833 85.7Z" fill="#fdfdfd" stroke="#fdfdfd"></path><path d="M846 0L798 0L787 48.9Z" fill="#fdfdfd" stroke="#fdfdfd"></path><path d="M862 525.3L900 475.3L849 478.4Z" fill="#f6f6f6" stroke="#f6f6f6"></path><path d="M900 188.4L900 148.6L850 183.3Z" fill="#fdfdfd" stroke="#fdfdfd"></path><path d="M51 422.6L97 419.7L68 397.6Z" fill="#f6f6f6" stroke="#f6f6f6"></path><path d="M118 540.3L86 579.1L168 600Z" fill="#f6f6f6" stroke="#f6f6f6"></path><path d="M34 233.1L75 213.3L74 202.4Z" fill="#fcfcfc" stroke="#fcfcfc"></path><path d="M34 233.1L114 262.1L75 213.3Z" fill="#f9f9f9" stroke="#f9f9f9"></path><path d="M34 403.7L68 397.6L53 356.9Z" fill="#f3f3f3" stroke="#f3f3f3"></path><path d="M34 403.7L51 422.6L68 397.6Z" fill="#ffffff" stroke="#ffffff"></path><path d="M93 81.9L64 158.6L109 140.4Z" fill="#fcfcfc" stroke="#fcfcfc"></path><path d="M777 600L840 600L780 555.1Z" fill="#f7f7f7" stroke="#f7f7f7"></path><path d="M862 525.3L900 567.1L900 475.3Z" fill="#f3f3f3" stroke="#f3f3f3"></path><path d="M209 0L156 0L173 36.9Z" fill="#f9f9f9" stroke="#f9f9f9"></path><path d="M119 85.7L93 81.9L109 140.4Z" fill="#f6f6f6" stroke="#f6f6f6"></path><path d="M75 10.9L93 81.9L119 85.7Z" fill="#f0f0f0" stroke="#f0f0f0"></path><path d="M900 104.7L890 92.7L869 131.6Z" fill="#fafafa" stroke="#fafafa"></path><path d="M0 210.3L34 233.1L0 202.4Z" fill="#f9f9f9" stroke="#f9f9f9"></path><path d="M38 287L34 233.1L0 232.1Z" fill="#f7f7f7" stroke="#f7f7f7"></path><path d="M900 148.6L900 104.7L869 131.6Z" fill="#f0f0f0" stroke="#f0f0f0"></path><path d="M0 349.7L34 403.7L53 356.9Z" fill="#fcfcfc" stroke="#fcfcfc"></path><path d="M51 422.6L50 474.3L109 441.4Z" fill="#fdfdfd" stroke="#fdfdfd"></path><path d="M0 334L67 341.9L38 287Z" fill="#f6f6f6" stroke="#f6f6f6"></path><path d="M840 600L871 577.1L862 525.3Z" fill="#fcfcfc" stroke="#fcfcfc"></path><path d="M0 450.4L50 474.3L51 422.6Z" fill="#f4f4f4" stroke="#f4f4f4"></path><path d="M870 14.9L846 0L833 85.7Z" fill="#f7f7f7" stroke="#f7f7f7"></path><path d="M870 14.9L833 85.7L890 92.7Z" fill="#fafafa" stroke="#fafafa"></path><path d="M840 600L866 600L871 577.1Z" fill="#f7f7f7" stroke="#f7f7f7"></path><path d="M871 577.1L900 567.1L862 525.3Z" fill="#f0f0f0" stroke="#f0f0f0"></path><path d="M0 526.3L53 507.4L50 474.3Z" fill="#fdfdfd" stroke="#fdfdfd"></path><path d="M50 474.3L53 507.4L109 494.4Z" fill="#ffffff" stroke="#ffffff"></path><path d="M99 530.1L86 579.1L118 540.3Z" fill="#f1f1f1" stroke="#f1f1f1"></path><path d="M31 571.1L86 579.1L99 530.1Z" fill="#fdfdfd" stroke="#fdfdfd"></path><path d="M900 15.9L870 14.9L890 92.7Z" fill="#ffffff" stroke="#ffffff"></path><path d="M900 600L900 567.1L871 577.1Z" fill="#ffffff" stroke="#ffffff"></path><path d="M0 232.1L34 233.1L0 210.3Z" fill="#f9f9f9" stroke="#f9f9f9"></path><path d="M0 232.1L0 310.9L38 287Z" fill="#fafafa" stroke="#fafafa"></path><path d="M34 403.7L0 429.6L51 422.6Z" fill="#f1f1f1" stroke="#f1f1f1"></path><path d="M0 310.9L0 334L38 287Z" fill="#f1f1f1" stroke="#f1f1f1"></path><path d="M0 334L0 349.7L53 356.9Z" fill="#f6f6f6" stroke="#f6f6f6"></path><path d="M34 233.1L74 202.4L0 202.4Z" fill="#f3f3f3" stroke="#f3f3f3"></path><path d="M0 85.7L31 119.7L93 81.9Z" fill="#ffffff" stroke="#ffffff"></path><path d="M93 81.9L31 119.7L64 158.6Z" fill="#fafafa" stroke="#fafafa"></path><path d="M31 571.1L99 530.1L53 507.4Z" fill="#f7f7f7" stroke="#f7f7f7"></path><path d="M31 571.1L83 600L86 579.1Z" fill="#f4f4f4" stroke="#f4f4f4"></path><path d="M86 579.1L83 600L168 600Z" fill="#fafafa" stroke="#fafafa"></path><path d="M12 162.4L74 202.4L64 158.6Z" fill="#fcfcfc" stroke="#fcfcfc"></path><path d="M31 119.7L12 162.4L64 158.6Z" fill="#fdfdfd" stroke="#fdfdfd"></path><path d="M12 162.4L0 202.4L74 202.4Z" fill="#ffffff" stroke="#ffffff"></path><path d="M0 349.7L0 429.6L34 403.7Z" fill="#ffffff" stroke="#ffffff"></path><path d="M866 600L900 600L871 577.1Z" fill="#fafafa" stroke="#fafafa"></path><path d="M0 429.6L0 450.4L51 422.6Z" fill="#f4f4f4" stroke="#f4f4f4"></path><path d="M900 104.7L900 15.9L890 92.7Z" fill="#f6f6f6" stroke="#f6f6f6"></path><path d="M870 14.9L900 0L846 0Z" fill="#f0f0f0" stroke="#f0f0f0"></path><path d="M31 119.7L10 123.6L12 162.4Z" fill="#fdfdfd" stroke="#fdfdfd"></path><path d="M156 0L75 10.9L119 85.7Z" fill="#f0f0f0" stroke="#f0f0f0"></path><path d="M0 85.7L10 123.6L31 119.7Z" fill="#f0f0f0" stroke="#f0f0f0"></path><path d="M12 162.4L0 136.6L0 202.4Z" fill="#fcfcfc" stroke="#fcfcfc"></path><path d="M900 15.9L900 0L870 14.9Z" fill="#f3f3f3" stroke="#f3f3f3"></path><path d="M0 85.7L0 136.6L10 123.6Z" fill="#f1f1f1" stroke="#f1f1f1"></path><path d="M10 123.6L0 136.6L12 162.4Z" fill="#fcfcfc" stroke="#fcfcfc"></path><path d="M156 0L68 0L75 10.9Z" fill="#f3f3f3" stroke="#f3f3f3"></path><path d="M0 26.9L0 85.7L93 81.9Z" fill="#f3f3f3" stroke="#f3f3f3"></path><path d="M0 526.3L31 571.1L53 507.4Z" fill="#fcfcfc" stroke="#fcfcfc"></path><path d="M0 450.4L0 526.3L50 474.3Z" fill="#f3f3f3" stroke="#f3f3f3"></path><path d="M68 0L55 0L75 10.9Z" fill="#f4f4f4" stroke="#f4f4f4"></path><path d="M0 26.9L93 81.9L75 10.9Z" fill="#f1f1f1" stroke="#f1f1f1"></path><path d="M0 526.3L0 549.1L31 571.1Z" fill="#ffffff" stroke="#ffffff"></path><path d="M0 600L12 600L31 571.1Z" fill="#ffffff" stroke="#ffffff"></path><path d="M31 571.1L12 600L83 600Z" fill="#fcfcfc" stroke="#fcfcfc"></path><path d="M55 0L0 26.9L75 10.9Z" fill="#f6f6f6" stroke="#f6f6f6"></path><path d="M0 549.1L0 600L31 571.1Z" fill="#f6f6f6" stroke="#f6f6f6"></path><path d="M55 0L0 0L0 26.9Z" fill="#f4f4f4" stroke="#f4f4f4"></path></g></svg>